<mxfile host="Electron" agent="Mozilla/5.0 (Windows NT 10.0; Win64; x64) AppleWebKit/537.36 (KHTML, like Gecko) draw.io/25.0.1 Chrome/128.0.6613.186 Electron/32.2.6 Safari/537.36" version="25.0.1">
  <diagram id="R2lEEEUBdFMjLlhIrx00" name="Page-1">
    <mxGraphModel dx="5629" dy="1517" grid="1" gridSize="10" guides="1" tooltips="1" connect="1" arrows="1" fold="1" page="0" pageScale="1" pageWidth="850" pageHeight="1100" math="0" shadow="0" extFonts="Permanent Marker^https://fonts.googleapis.com/css?family=Permanent+Marker">
      <root>
        <mxCell id="0" />
        <mxCell id="1" parent="0" />
        <mxCell id="WO7DuQi57oJoATq72fEE-161" value="EmployÃ©s" style="shape=table;startSize=30;container=1;collapsible=1;childLayout=tableLayout;fixedRows=1;rowLines=0;fontStyle=1;align=center;resizeLast=1;fontSize=14;" parent="1" vertex="1">
          <mxGeometry x="-1660" y="570" width="330" height="250" as="geometry" />
        </mxCell>
        <mxCell id="WO7DuQi57oJoATq72fEE-162" value="" style="shape=partialRectangle;collapsible=0;dropTarget=0;pointerEvents=0;fillColor=none;points=[[0,0.5],[1,0.5]];portConstraint=eastwest;top=0;left=0;right=0;bottom=1;fontSize=14;" parent="WO7DuQi57oJoATq72fEE-161" vertex="1">
          <mxGeometry y="30" width="330" height="30" as="geometry" />
        </mxCell>
        <mxCell id="WO7DuQi57oJoATq72fEE-163" value="PK" style="shape=partialRectangle;overflow=hidden;connectable=0;fillColor=none;top=0;left=0;bottom=0;right=0;fontStyle=1;fontSize=14;" parent="WO7DuQi57oJoATq72fEE-162" vertex="1">
          <mxGeometry width="30" height="30" as="geometry">
            <mxRectangle width="30" height="30" as="alternateBounds" />
          </mxGeometry>
        </mxCell>
        <mxCell id="WO7DuQi57oJoATq72fEE-164" value="EmployeID INT AUTO_INCREMENT NOT NULL " style="shape=partialRectangle;overflow=hidden;connectable=0;fillColor=none;top=0;left=0;bottom=0;right=0;align=left;spacingLeft=6;fontStyle=5;fontSize=14;" parent="WO7DuQi57oJoATq72fEE-162" vertex="1">
          <mxGeometry x="30" width="300" height="30" as="geometry">
            <mxRectangle width="300" height="30" as="alternateBounds" />
          </mxGeometry>
        </mxCell>
        <mxCell id="WO7DuQi57oJoATq72fEE-165" value="" style="shape=partialRectangle;collapsible=0;dropTarget=0;pointerEvents=0;fillColor=none;points=[[0,0.5],[1,0.5]];portConstraint=eastwest;top=0;left=0;right=0;bottom=0;fontSize=14;" parent="WO7DuQi57oJoATq72fEE-161" vertex="1">
          <mxGeometry y="60" width="330" height="30" as="geometry" />
        </mxCell>
        <mxCell id="WO7DuQi57oJoATq72fEE-166" value="" style="shape=partialRectangle;overflow=hidden;connectable=0;fillColor=none;top=0;left=0;bottom=0;right=0;fontSize=14;" parent="WO7DuQi57oJoATq72fEE-165" vertex="1">
          <mxGeometry width="30" height="30" as="geometry">
            <mxRectangle width="30" height="30" as="alternateBounds" />
          </mxGeometry>
        </mxCell>
        <mxCell id="WO7DuQi57oJoATq72fEE-167" value="Role ENUM NOT NULL" style="shape=partialRectangle;overflow=hidden;connectable=0;fillColor=none;top=0;left=0;bottom=0;right=0;align=left;spacingLeft=6;fontSize=14;" parent="WO7DuQi57oJoATq72fEE-165" vertex="1">
          <mxGeometry x="30" width="300" height="30" as="geometry">
            <mxRectangle width="300" height="30" as="alternateBounds" />
          </mxGeometry>
        </mxCell>
        <mxCell id="WO7DuQi57oJoATq72fEE-174" value="" style="shape=partialRectangle;collapsible=0;dropTarget=0;pointerEvents=0;fillColor=none;points=[[0,0.5],[1,0.5]];portConstraint=eastwest;top=0;left=0;right=0;bottom=0;fontSize=14;" parent="WO7DuQi57oJoATq72fEE-161" vertex="1">
          <mxGeometry y="90" width="330" height="70" as="geometry" />
        </mxCell>
        <mxCell id="WO7DuQi57oJoATq72fEE-175" value="" style="shape=partialRectangle;overflow=hidden;connectable=0;fillColor=none;top=0;left=0;bottom=0;right=0;fontSize=14;" parent="WO7DuQi57oJoATq72fEE-174" vertex="1">
          <mxGeometry width="30" height="70" as="geometry">
            <mxRectangle width="30" height="70" as="alternateBounds" />
          </mxGeometry>
        </mxCell>
        <mxCell id="WO7DuQi57oJoATq72fEE-176" value="nomEmploye VARCHAR" style="shape=partialRectangle;overflow=hidden;connectable=0;fillColor=none;top=0;left=0;bottom=0;right=0;align=left;spacingLeft=6;fontSize=14;" parent="WO7DuQi57oJoATq72fEE-174" vertex="1">
          <mxGeometry x="30" width="300" height="70" as="geometry">
            <mxRectangle width="300" height="70" as="alternateBounds" />
          </mxGeometry>
        </mxCell>
        <mxCell id="WO7DuQi57oJoATq72fEE-182" value="" style="shape=partialRectangle;collapsible=0;dropTarget=0;pointerEvents=0;fillColor=none;points=[[0,0.5],[1,0.5]];portConstraint=eastwest;top=0;left=0;right=0;bottom=0;fontSize=14;" parent="WO7DuQi57oJoATq72fEE-161" vertex="1">
          <mxGeometry y="160" width="330" height="30" as="geometry" />
        </mxCell>
        <mxCell id="WO7DuQi57oJoATq72fEE-183" value="" style="shape=partialRectangle;overflow=hidden;connectable=0;fillColor=none;top=0;left=0;bottom=0;right=0;fontSize=14;" parent="WO7DuQi57oJoATq72fEE-182" vertex="1">
          <mxGeometry width="30" height="30" as="geometry">
            <mxRectangle width="30" height="30" as="alternateBounds" />
          </mxGeometry>
        </mxCell>
        <mxCell id="WO7DuQi57oJoATq72fEE-184" value="Salaire DECIMAL&#xa;" style="shape=partialRectangle;overflow=hidden;connectable=0;fillColor=none;top=0;left=0;bottom=0;right=0;align=left;spacingLeft=6;fontSize=14;" parent="WO7DuQi57oJoATq72fEE-182" vertex="1">
          <mxGeometry x="30" width="300" height="30" as="geometry">
            <mxRectangle width="300" height="30" as="alternateBounds" />
          </mxGeometry>
        </mxCell>
        <mxCell id="WO7DuQi57oJoATq72fEE-185" value="" style="shape=partialRectangle;collapsible=0;dropTarget=0;pointerEvents=0;fillColor=none;points=[[0,0.5],[1,0.5]];portConstraint=eastwest;top=0;left=0;right=0;bottom=0;fontSize=14;" parent="WO7DuQi57oJoATq72fEE-161" vertex="1">
          <mxGeometry y="190" width="330" height="30" as="geometry" />
        </mxCell>
        <mxCell id="WO7DuQi57oJoATq72fEE-186" value="" style="shape=partialRectangle;overflow=hidden;connectable=0;fillColor=none;top=0;left=0;bottom=0;right=0;fontSize=14;" parent="WO7DuQi57oJoATq72fEE-185" vertex="1">
          <mxGeometry width="30" height="30" as="geometry">
            <mxRectangle width="30" height="30" as="alternateBounds" />
          </mxGeometry>
        </mxCell>
        <mxCell id="WO7DuQi57oJoATq72fEE-187" value="HoraireEmploye ENUM" style="shape=partialRectangle;overflow=hidden;connectable=0;fillColor=none;top=0;left=0;bottom=0;right=0;align=left;spacingLeft=6;fontSize=14;" parent="WO7DuQi57oJoATq72fEE-185" vertex="1">
          <mxGeometry x="30" width="300" height="30" as="geometry">
            <mxRectangle width="300" height="30" as="alternateBounds" />
          </mxGeometry>
        </mxCell>
        <mxCell id="WO7DuQi57oJoATq72fEE-188" value="" style="shape=partialRectangle;collapsible=0;dropTarget=0;pointerEvents=0;fillColor=none;points=[[0,0.5],[1,0.5]];portConstraint=eastwest;top=0;left=0;right=0;bottom=0;fontSize=14;" parent="WO7DuQi57oJoATq72fEE-161" vertex="1">
          <mxGeometry y="220" width="330" height="30" as="geometry" />
        </mxCell>
        <mxCell id="WO7DuQi57oJoATq72fEE-189" value="" style="shape=partialRectangle;overflow=hidden;connectable=0;fillColor=none;top=0;left=0;bottom=0;right=0;fontSize=14;" parent="WO7DuQi57oJoATq72fEE-188" vertex="1">
          <mxGeometry width="30" height="30" as="geometry">
            <mxRectangle width="30" height="30" as="alternateBounds" />
          </mxGeometry>
        </mxCell>
        <mxCell id="WO7DuQi57oJoATq72fEE-190" value="SecteurID INT NULL" style="shape=partialRectangle;overflow=hidden;connectable=0;fillColor=none;top=0;left=0;bottom=0;right=0;align=left;spacingLeft=6;fontSize=14;" parent="WO7DuQi57oJoATq72fEE-188" vertex="1">
          <mxGeometry x="30" width="300" height="30" as="geometry">
            <mxRectangle width="300" height="30" as="alternateBounds" />
          </mxGeometry>
        </mxCell>
        <mxCell id="6WeZvm8_WD35yYT35S7E-1" value="Secteurs" style="shape=table;startSize=50;container=1;collapsible=1;childLayout=tableLayout;fixedRows=1;rowLines=0;fontStyle=1;align=center;resizeLast=1;fontSize=14;" parent="1" vertex="1">
          <mxGeometry x="-2270" y="1242.5" width="350" height="170" as="geometry" />
        </mxCell>
        <mxCell id="6WeZvm8_WD35yYT35S7E-2" value="" style="shape=partialRectangle;collapsible=0;dropTarget=0;pointerEvents=0;fillColor=none;points=[[0,0.5],[1,0.5]];portConstraint=eastwest;top=0;left=0;right=0;bottom=1;fontSize=14;" parent="6WeZvm8_WD35yYT35S7E-1" vertex="1">
          <mxGeometry y="50" width="350" height="30" as="geometry" />
        </mxCell>
        <mxCell id="6WeZvm8_WD35yYT35S7E-3" value="PK" style="shape=partialRectangle;overflow=hidden;connectable=0;fillColor=none;top=0;left=0;bottom=0;right=0;fontStyle=1;fontSize=14;" parent="6WeZvm8_WD35yYT35S7E-2" vertex="1">
          <mxGeometry width="30" height="30" as="geometry">
            <mxRectangle width="30" height="30" as="alternateBounds" />
          </mxGeometry>
        </mxCell>
        <mxCell id="6WeZvm8_WD35yYT35S7E-4" value="SecteurID INT AUTO_INCREMENT NOT NULL " style="shape=partialRectangle;overflow=hidden;connectable=0;fillColor=none;top=0;left=0;bottom=0;right=0;align=left;spacingLeft=6;fontStyle=5;fontSize=14;" parent="6WeZvm8_WD35yYT35S7E-2" vertex="1">
          <mxGeometry x="30" width="320" height="30" as="geometry">
            <mxRectangle width="320" height="30" as="alternateBounds" />
          </mxGeometry>
        </mxCell>
        <mxCell id="6WeZvm8_WD35yYT35S7E-8" value="" style="shape=partialRectangle;collapsible=0;dropTarget=0;pointerEvents=0;fillColor=none;points=[[0,0.5],[1,0.5]];portConstraint=eastwest;top=0;left=0;right=0;bottom=0;fontSize=14;" parent="6WeZvm8_WD35yYT35S7E-1" vertex="1">
          <mxGeometry y="80" width="350" height="60" as="geometry" />
        </mxCell>
        <mxCell id="6WeZvm8_WD35yYT35S7E-9" value="" style="shape=partialRectangle;overflow=hidden;connectable=0;fillColor=none;top=0;left=0;bottom=0;right=0;fontSize=14;" parent="6WeZvm8_WD35yYT35S7E-8" vertex="1">
          <mxGeometry width="30" height="60" as="geometry">
            <mxRectangle width="30" height="60" as="alternateBounds" />
          </mxGeometry>
        </mxCell>
        <mxCell id="6WeZvm8_WD35yYT35S7E-10" value="nomSecteur VARCHAR" style="shape=partialRectangle;overflow=hidden;connectable=0;fillColor=none;top=0;left=0;bottom=0;right=0;align=left;spacingLeft=6;fontSize=14;" parent="6WeZvm8_WD35yYT35S7E-8" vertex="1">
          <mxGeometry x="30" width="320" height="60" as="geometry">
            <mxRectangle width="320" height="60" as="alternateBounds" />
          </mxGeometry>
        </mxCell>
        <mxCell id="6WeZvm8_WD35yYT35S7E-11" value="" style="shape=partialRectangle;collapsible=0;dropTarget=0;pointerEvents=0;fillColor=none;points=[[0,0.5],[1,0.5]];portConstraint=eastwest;top=0;left=0;right=0;bottom=0;fontSize=14;" parent="6WeZvm8_WD35yYT35S7E-1" vertex="1">
          <mxGeometry y="140" width="350" height="30" as="geometry" />
        </mxCell>
        <mxCell id="6WeZvm8_WD35yYT35S7E-12" value="" style="shape=partialRectangle;overflow=hidden;connectable=0;fillColor=none;top=0;left=0;bottom=0;right=0;fontSize=14;" parent="6WeZvm8_WD35yYT35S7E-11" vertex="1">
          <mxGeometry width="30" height="30" as="geometry">
            <mxRectangle width="30" height="30" as="alternateBounds" />
          </mxGeometry>
        </mxCell>
        <mxCell id="6WeZvm8_WD35yYT35S7E-13" value="NombreDeTables INT&#xa;" style="shape=partialRectangle;overflow=hidden;connectable=0;fillColor=none;top=0;left=0;bottom=0;right=0;align=left;spacingLeft=6;fontSize=14;" parent="6WeZvm8_WD35yYT35S7E-11" vertex="1">
          <mxGeometry x="30" width="320" height="30" as="geometry">
            <mxRectangle width="320" height="30" as="alternateBounds" />
          </mxGeometry>
        </mxCell>
        <mxCell id="6WeZvm8_WD35yYT35S7E-42" value="Clients" style="shape=table;startSize=30;container=1;collapsible=1;childLayout=tableLayout;fixedRows=1;rowLines=0;fontStyle=1;align=center;resizeLast=1;fontSize=14;" parent="1" vertex="1">
          <mxGeometry x="-2050" y="300" width="330" height="120" as="geometry" />
        </mxCell>
        <mxCell id="6WeZvm8_WD35yYT35S7E-43" value="" style="shape=partialRectangle;collapsible=0;dropTarget=0;pointerEvents=0;fillColor=none;points=[[0,0.5],[1,0.5]];portConstraint=eastwest;top=0;left=0;right=0;bottom=1;fontSize=14;" parent="6WeZvm8_WD35yYT35S7E-42" vertex="1">
          <mxGeometry y="30" width="330" height="30" as="geometry" />
        </mxCell>
        <mxCell id="6WeZvm8_WD35yYT35S7E-44" value="PK" style="shape=partialRectangle;overflow=hidden;connectable=0;fillColor=none;top=0;left=0;bottom=0;right=0;fontStyle=1;fontSize=14;" parent="6WeZvm8_WD35yYT35S7E-43" vertex="1">
          <mxGeometry width="30" height="30" as="geometry">
            <mxRectangle width="30" height="30" as="alternateBounds" />
          </mxGeometry>
        </mxCell>
        <mxCell id="6WeZvm8_WD35yYT35S7E-45" value="ClientID INT AUTO_INCREMENT NOT NULL " style="shape=partialRectangle;overflow=hidden;connectable=0;fillColor=none;top=0;left=0;bottom=0;right=0;align=left;spacingLeft=6;fontStyle=5;fontSize=14;" parent="6WeZvm8_WD35yYT35S7E-43" vertex="1">
          <mxGeometry x="30" width="300" height="30" as="geometry">
            <mxRectangle width="300" height="30" as="alternateBounds" />
          </mxGeometry>
        </mxCell>
        <mxCell id="6WeZvm8_WD35yYT35S7E-46" value="" style="shape=partialRectangle;collapsible=0;dropTarget=0;pointerEvents=0;fillColor=none;points=[[0,0.5],[1,0.5]];portConstraint=eastwest;top=0;left=0;right=0;bottom=1;fontSize=14;" parent="6WeZvm8_WD35yYT35S7E-42" vertex="1">
          <mxGeometry y="60" width="330" height="30" as="geometry" />
        </mxCell>
        <mxCell id="6WeZvm8_WD35yYT35S7E-47" value="FK1" style="shape=partialRectangle;overflow=hidden;connectable=0;fillColor=none;top=0;left=0;bottom=0;right=0;fontStyle=1;fontSize=14;" parent="6WeZvm8_WD35yYT35S7E-46" vertex="1">
          <mxGeometry width="30" height="30" as="geometry">
            <mxRectangle width="30" height="30" as="alternateBounds" />
          </mxGeometry>
        </mxCell>
        <mxCell id="6WeZvm8_WD35yYT35S7E-48" value="ReservationID INT AUTO_INCREMENT NOT NULL " style="shape=partialRectangle;overflow=hidden;connectable=0;fillColor=none;top=0;left=0;bottom=0;right=0;align=left;spacingLeft=6;fontStyle=5;fontSize=14;" parent="6WeZvm8_WD35yYT35S7E-46" vertex="1">
          <mxGeometry x="30" width="300" height="30" as="geometry">
            <mxRectangle width="300" height="30" as="alternateBounds" />
          </mxGeometry>
        </mxCell>
        <mxCell id="6WeZvm8_WD35yYT35S7E-49" value="" style="shape=partialRectangle;collapsible=0;dropTarget=0;pointerEvents=0;fillColor=none;points=[[0,0.5],[1,0.5]];portConstraint=eastwest;top=0;left=0;right=0;bottom=0;fontSize=14;" parent="6WeZvm8_WD35yYT35S7E-42" vertex="1">
          <mxGeometry y="90" width="330" height="30" as="geometry" />
        </mxCell>
        <mxCell id="6WeZvm8_WD35yYT35S7E-50" value="" style="shape=partialRectangle;overflow=hidden;connectable=0;fillColor=none;top=0;left=0;bottom=0;right=0;fontSize=14;" parent="6WeZvm8_WD35yYT35S7E-49" vertex="1">
          <mxGeometry width="30" height="30" as="geometry">
            <mxRectangle width="30" height="30" as="alternateBounds" />
          </mxGeometry>
        </mxCell>
        <mxCell id="6WeZvm8_WD35yYT35S7E-51" value="NomClient VARCHAR" style="shape=partialRectangle;overflow=hidden;connectable=0;fillColor=none;top=0;left=0;bottom=0;right=0;align=left;spacingLeft=6;fontSize=14;" parent="6WeZvm8_WD35yYT35S7E-49" vertex="1">
          <mxGeometry x="30" width="300" height="30" as="geometry">
            <mxRectangle width="300" height="30" as="alternateBounds" />
          </mxGeometry>
        </mxCell>
        <mxCell id="6WeZvm8_WD35yYT35S7E-74" value="Inventaire" style="shape=table;startSize=30;container=1;collapsible=1;childLayout=tableLayout;fixedRows=1;rowLines=0;fontStyle=1;align=center;resizeLast=1;fontSize=14;" parent="1" vertex="1">
          <mxGeometry x="-1260" y="590" width="330" height="190" as="geometry" />
        </mxCell>
        <mxCell id="6WeZvm8_WD35yYT35S7E-75" value="" style="shape=partialRectangle;collapsible=0;dropTarget=0;pointerEvents=0;fillColor=none;points=[[0,0.5],[1,0.5]];portConstraint=eastwest;top=0;left=0;right=0;bottom=1;fontSize=14;" parent="6WeZvm8_WD35yYT35S7E-74" vertex="1">
          <mxGeometry y="30" width="330" height="30" as="geometry" />
        </mxCell>
        <mxCell id="6WeZvm8_WD35yYT35S7E-76" value="PK" style="shape=partialRectangle;overflow=hidden;connectable=0;fillColor=none;top=0;left=0;bottom=0;right=0;fontStyle=1;fontSize=14;" parent="6WeZvm8_WD35yYT35S7E-75" vertex="1">
          <mxGeometry width="30" height="30" as="geometry">
            <mxRectangle width="30" height="30" as="alternateBounds" />
          </mxGeometry>
        </mxCell>
        <mxCell id="6WeZvm8_WD35yYT35S7E-77" value="ProduitID INT AUTO_INCREMENT NOT NULL " style="shape=partialRectangle;overflow=hidden;connectable=0;fillColor=none;top=0;left=0;bottom=0;right=0;align=left;spacingLeft=6;fontStyle=5;fontSize=14;" parent="6WeZvm8_WD35yYT35S7E-75" vertex="1">
          <mxGeometry x="30" width="300" height="30" as="geometry">
            <mxRectangle width="300" height="30" as="alternateBounds" />
          </mxGeometry>
        </mxCell>
        <mxCell id="6WeZvm8_WD35yYT35S7E-81" value="" style="shape=partialRectangle;collapsible=0;dropTarget=0;pointerEvents=0;fillColor=none;points=[[0,0.5],[1,0.5]];portConstraint=eastwest;top=0;left=0;right=0;bottom=0;fontSize=14;" parent="6WeZvm8_WD35yYT35S7E-74" vertex="1">
          <mxGeometry y="60" width="330" height="30" as="geometry" />
        </mxCell>
        <mxCell id="6WeZvm8_WD35yYT35S7E-82" value="" style="shape=partialRectangle;overflow=hidden;connectable=0;fillColor=none;top=0;left=0;bottom=0;right=0;fontSize=14;" parent="6WeZvm8_WD35yYT35S7E-81" vertex="1">
          <mxGeometry width="30" height="30" as="geometry">
            <mxRectangle width="30" height="30" as="alternateBounds" />
          </mxGeometry>
        </mxCell>
        <mxCell id="6WeZvm8_WD35yYT35S7E-83" value="NomProduit VARCHAR" style="shape=partialRectangle;overflow=hidden;connectable=0;fillColor=none;top=0;left=0;bottom=0;right=0;align=left;spacingLeft=6;fontSize=14;" parent="6WeZvm8_WD35yYT35S7E-81" vertex="1">
          <mxGeometry x="30" width="300" height="30" as="geometry">
            <mxRectangle width="300" height="30" as="alternateBounds" />
          </mxGeometry>
        </mxCell>
        <mxCell id="6WeZvm8_WD35yYT35S7E-84" value="" style="shape=partialRectangle;collapsible=0;dropTarget=0;pointerEvents=0;fillColor=none;points=[[0,0.5],[1,0.5]];portConstraint=eastwest;top=0;left=0;right=0;bottom=0;fontSize=14;" parent="6WeZvm8_WD35yYT35S7E-74" vertex="1">
          <mxGeometry y="90" width="330" height="30" as="geometry" />
        </mxCell>
        <mxCell id="6WeZvm8_WD35yYT35S7E-85" value="" style="shape=partialRectangle;overflow=hidden;connectable=0;fillColor=none;top=0;left=0;bottom=0;right=0;fontSize=14;" parent="6WeZvm8_WD35yYT35S7E-84" vertex="1">
          <mxGeometry width="30" height="30" as="geometry">
            <mxRectangle width="30" height="30" as="alternateBounds" />
          </mxGeometry>
        </mxCell>
        <mxCell id="6WeZvm8_WD35yYT35S7E-86" value="CatÃ©gorie ENUM" style="shape=partialRectangle;overflow=hidden;connectable=0;fillColor=none;top=0;left=0;bottom=0;right=0;align=left;spacingLeft=6;fontSize=14;" parent="6WeZvm8_WD35yYT35S7E-84" vertex="1">
          <mxGeometry x="30" width="300" height="30" as="geometry">
            <mxRectangle width="300" height="30" as="alternateBounds" />
          </mxGeometry>
        </mxCell>
        <mxCell id="6WeZvm8_WD35yYT35S7E-87" value="" style="shape=partialRectangle;collapsible=0;dropTarget=0;pointerEvents=0;fillColor=none;points=[[0,0.5],[1,0.5]];portConstraint=eastwest;top=0;left=0;right=0;bottom=0;fontSize=14;" parent="6WeZvm8_WD35yYT35S7E-74" vertex="1">
          <mxGeometry y="120" width="330" height="40" as="geometry" />
        </mxCell>
        <mxCell id="6WeZvm8_WD35yYT35S7E-88" value="" style="shape=partialRectangle;overflow=hidden;connectable=0;fillColor=none;top=0;left=0;bottom=0;right=0;fontSize=14;" parent="6WeZvm8_WD35yYT35S7E-87" vertex="1">
          <mxGeometry width="30" height="40" as="geometry">
            <mxRectangle width="30" height="40" as="alternateBounds" />
          </mxGeometry>
        </mxCell>
        <mxCell id="6WeZvm8_WD35yYT35S7E-89" value="QuantitÃ© INT" style="shape=partialRectangle;overflow=hidden;connectable=0;fillColor=none;top=0;left=0;bottom=0;right=0;align=left;spacingLeft=6;fontSize=14;" parent="6WeZvm8_WD35yYT35S7E-87" vertex="1">
          <mxGeometry x="30" width="300" height="40" as="geometry">
            <mxRectangle width="300" height="40" as="alternateBounds" />
          </mxGeometry>
        </mxCell>
        <mxCell id="6WeZvm8_WD35yYT35S7E-90" value="" style="shape=partialRectangle;collapsible=0;dropTarget=0;pointerEvents=0;fillColor=none;points=[[0,0.5],[1,0.5]];portConstraint=eastwest;top=0;left=0;right=0;bottom=0;fontSize=14;" parent="6WeZvm8_WD35yYT35S7E-74" vertex="1">
          <mxGeometry y="160" width="330" height="30" as="geometry" />
        </mxCell>
        <mxCell id="6WeZvm8_WD35yYT35S7E-91" value="" style="shape=partialRectangle;overflow=hidden;connectable=0;fillColor=none;top=0;left=0;bottom=0;right=0;fontSize=14;" parent="6WeZvm8_WD35yYT35S7E-90" vertex="1">
          <mxGeometry width="30" height="30" as="geometry">
            <mxRectangle width="30" height="30" as="alternateBounds" />
          </mxGeometry>
        </mxCell>
        <mxCell id="6WeZvm8_WD35yYT35S7E-92" value="DateExpiration DATE&#xa;" style="shape=partialRectangle;overflow=hidden;connectable=0;fillColor=none;top=0;left=0;bottom=0;right=0;align=left;spacingLeft=6;fontSize=14;" parent="6WeZvm8_WD35yYT35S7E-90" vertex="1">
          <mxGeometry x="30" width="300" height="30" as="geometry">
            <mxRectangle width="300" height="30" as="alternateBounds" />
          </mxGeometry>
        </mxCell>
        <mxCell id="6WeZvm8_WD35yYT35S7E-96" value="Commandes" style="shape=table;startSize=30;container=1;collapsible=1;childLayout=tableLayout;fixedRows=1;rowLines=0;fontStyle=1;align=center;resizeLast=1;fontSize=14;" parent="1" vertex="1">
          <mxGeometry x="-740" y="587.5" width="360" height="150" as="geometry" />
        </mxCell>
        <mxCell id="6WeZvm8_WD35yYT35S7E-112" value="" style="shape=partialRectangle;collapsible=0;dropTarget=0;pointerEvents=0;fillColor=none;points=[[0,0.5],[1,0.5]];portConstraint=eastwest;top=0;left=0;right=0;bottom=1;fontSize=14;" parent="6WeZvm8_WD35yYT35S7E-96" vertex="1">
          <mxGeometry y="30" width="360" height="30" as="geometry" />
        </mxCell>
        <mxCell id="6WeZvm8_WD35yYT35S7E-113" value="PK" style="shape=partialRectangle;overflow=hidden;connectable=0;fillColor=none;top=0;left=0;bottom=0;right=0;fontStyle=1;fontSize=14;" parent="6WeZvm8_WD35yYT35S7E-112" vertex="1">
          <mxGeometry width="30" height="30" as="geometry">
            <mxRectangle width="30" height="30" as="alternateBounds" />
          </mxGeometry>
        </mxCell>
        <mxCell id="6WeZvm8_WD35yYT35S7E-114" value="CommandeID INT AUTO_INCREMENT NOT NULL " style="shape=partialRectangle;overflow=hidden;connectable=0;fillColor=none;top=0;left=0;bottom=0;right=0;align=left;spacingLeft=6;fontStyle=5;fontSize=14;" parent="6WeZvm8_WD35yYT35S7E-112" vertex="1">
          <mxGeometry x="30" width="330" height="30" as="geometry">
            <mxRectangle width="330" height="30" as="alternateBounds" />
          </mxGeometry>
        </mxCell>
        <mxCell id="6WeZvm8_WD35yYT35S7E-97" value="" style="shape=partialRectangle;collapsible=0;dropTarget=0;pointerEvents=0;fillColor=none;points=[[0,0.5],[1,0.5]];portConstraint=eastwest;top=0;left=0;right=0;bottom=1;fontSize=14;" parent="6WeZvm8_WD35yYT35S7E-96" vertex="1">
          <mxGeometry y="60" width="360" height="30" as="geometry" />
        </mxCell>
        <mxCell id="6WeZvm8_WD35yYT35S7E-98" value="FK1" style="shape=partialRectangle;overflow=hidden;connectable=0;fillColor=none;top=0;left=0;bottom=0;right=0;fontStyle=1;fontSize=14;" parent="6WeZvm8_WD35yYT35S7E-97" vertex="1">
          <mxGeometry width="30" height="30" as="geometry">
            <mxRectangle width="30" height="30" as="alternateBounds" />
          </mxGeometry>
        </mxCell>
        <mxCell id="6WeZvm8_WD35yYT35S7E-99" value="TableID INT AUTO_INCREMENT NOT NULL " style="shape=partialRectangle;overflow=hidden;connectable=0;fillColor=none;top=0;left=0;bottom=0;right=0;align=left;spacingLeft=6;fontStyle=5;fontSize=14;" parent="6WeZvm8_WD35yYT35S7E-97" vertex="1">
          <mxGeometry x="30" width="330" height="30" as="geometry">
            <mxRectangle width="330" height="30" as="alternateBounds" />
          </mxGeometry>
        </mxCell>
        <mxCell id="6WeZvm8_WD35yYT35S7E-100" value="" style="shape=partialRectangle;collapsible=0;dropTarget=0;pointerEvents=0;fillColor=none;points=[[0,0.5],[1,0.5]];portConstraint=eastwest;top=0;left=0;right=0;bottom=0;fontSize=14;" parent="6WeZvm8_WD35yYT35S7E-96" vertex="1">
          <mxGeometry y="90" width="360" height="30" as="geometry" />
        </mxCell>
        <mxCell id="6WeZvm8_WD35yYT35S7E-101" value="" style="shape=partialRectangle;overflow=hidden;connectable=0;fillColor=none;top=0;left=0;bottom=0;right=0;fontSize=14;" parent="6WeZvm8_WD35yYT35S7E-100" vertex="1">
          <mxGeometry width="30" height="30" as="geometry">
            <mxRectangle width="30" height="30" as="alternateBounds" />
          </mxGeometry>
        </mxCell>
        <mxCell id="6WeZvm8_WD35yYT35S7E-102" value="HeureCommande DATETIME" style="shape=partialRectangle;overflow=hidden;connectable=0;fillColor=none;top=0;left=0;bottom=0;right=0;align=left;spacingLeft=6;fontSize=14;" parent="6WeZvm8_WD35yYT35S7E-100" vertex="1">
          <mxGeometry x="30" width="330" height="30" as="geometry">
            <mxRectangle width="330" height="30" as="alternateBounds" />
          </mxGeometry>
        </mxCell>
        <mxCell id="6WeZvm8_WD35yYT35S7E-103" value="" style="shape=partialRectangle;collapsible=0;dropTarget=0;pointerEvents=0;fillColor=none;points=[[0,0.5],[1,0.5]];portConstraint=eastwest;top=0;left=0;right=0;bottom=0;fontSize=14;" parent="6WeZvm8_WD35yYT35S7E-96" vertex="1">
          <mxGeometry y="120" width="360" height="30" as="geometry" />
        </mxCell>
        <mxCell id="6WeZvm8_WD35yYT35S7E-104" value="" style="shape=partialRectangle;overflow=hidden;connectable=0;fillColor=none;top=0;left=0;bottom=0;right=0;fontSize=14;" parent="6WeZvm8_WD35yYT35S7E-103" vertex="1">
          <mxGeometry width="30" height="30" as="geometry">
            <mxRectangle width="30" height="30" as="alternateBounds" />
          </mxGeometry>
        </mxCell>
        <mxCell id="6WeZvm8_WD35yYT35S7E-105" value="Statut ENUM" style="shape=partialRectangle;overflow=hidden;connectable=0;fillColor=none;top=0;left=0;bottom=0;right=0;align=left;spacingLeft=6;fontSize=14;" parent="6WeZvm8_WD35yYT35S7E-103" vertex="1">
          <mxGeometry x="30" width="330" height="30" as="geometry">
            <mxRectangle width="330" height="30" as="alternateBounds" />
          </mxGeometry>
        </mxCell>
        <mxCell id="6WeZvm8_WD35yYT35S7E-115" value="DetailsCommandes" style="shape=table;startSize=30;container=1;collapsible=1;childLayout=tableLayout;fixedRows=1;rowLines=0;fontStyle=1;align=center;resizeLast=1;fontSize=14;" parent="1" vertex="1">
          <mxGeometry x="-720" y="1070" width="330" height="155" as="geometry" />
        </mxCell>
        <mxCell id="6WeZvm8_WD35yYT35S7E-116" value="" style="shape=partialRectangle;collapsible=0;dropTarget=0;pointerEvents=0;fillColor=none;points=[[0,0.5],[1,0.5]];portConstraint=eastwest;top=0;left=0;right=0;bottom=1;fontSize=14;" parent="6WeZvm8_WD35yYT35S7E-115" vertex="1">
          <mxGeometry y="30" width="330" height="30" as="geometry" />
        </mxCell>
        <mxCell id="6WeZvm8_WD35yYT35S7E-117" value="PK" style="shape=partialRectangle;overflow=hidden;connectable=0;fillColor=none;top=0;left=0;bottom=0;right=0;fontStyle=1;fontSize=14;" parent="6WeZvm8_WD35yYT35S7E-116" vertex="1">
          <mxGeometry width="30" height="30" as="geometry">
            <mxRectangle width="30" height="30" as="alternateBounds" />
          </mxGeometry>
        </mxCell>
        <mxCell id="6WeZvm8_WD35yYT35S7E-118" value="DetailsID INT AUTO_INCREMENT NOT NULL " style="shape=partialRectangle;overflow=hidden;connectable=0;fillColor=none;top=0;left=0;bottom=0;right=0;align=left;spacingLeft=6;fontStyle=5;fontSize=14;" parent="6WeZvm8_WD35yYT35S7E-116" vertex="1">
          <mxGeometry x="30" width="300" height="30" as="geometry">
            <mxRectangle width="300" height="30" as="alternateBounds" />
          </mxGeometry>
        </mxCell>
        <mxCell id="6WeZvm8_WD35yYT35S7E-119" value="" style="shape=partialRectangle;collapsible=0;dropTarget=0;pointerEvents=0;fillColor=none;points=[[0,0.5],[1,0.5]];portConstraint=eastwest;top=0;left=0;right=0;bottom=1;fontSize=14;" parent="6WeZvm8_WD35yYT35S7E-115" vertex="1">
          <mxGeometry y="60" width="330" height="30" as="geometry" />
        </mxCell>
        <mxCell id="6WeZvm8_WD35yYT35S7E-120" value="FK1" style="shape=partialRectangle;overflow=hidden;connectable=0;fillColor=none;top=0;left=0;bottom=0;right=0;fontStyle=1;fontSize=14;" parent="6WeZvm8_WD35yYT35S7E-119" vertex="1">
          <mxGeometry width="30" height="30" as="geometry">
            <mxRectangle width="30" height="30" as="alternateBounds" />
          </mxGeometry>
        </mxCell>
        <mxCell id="6WeZvm8_WD35yYT35S7E-121" value="CommandeID INT AUTO_INCREMENT NOT NULL " style="shape=partialRectangle;overflow=hidden;connectable=0;fillColor=none;top=0;left=0;bottom=0;right=0;align=left;spacingLeft=6;fontStyle=5;fontSize=14;" parent="6WeZvm8_WD35yYT35S7E-119" vertex="1">
          <mxGeometry x="30" width="300" height="30" as="geometry">
            <mxRectangle width="300" height="30" as="alternateBounds" />
          </mxGeometry>
        </mxCell>
        <mxCell id="6WeZvm8_WD35yYT35S7E-122" value="" style="shape=partialRectangle;collapsible=0;dropTarget=0;pointerEvents=0;fillColor=none;points=[[0,0.5],[1,0.5]];portConstraint=eastwest;top=0;left=0;right=0;bottom=0;fontSize=14;" parent="6WeZvm8_WD35yYT35S7E-115" vertex="1">
          <mxGeometry y="90" width="330" height="35" as="geometry" />
        </mxCell>
        <mxCell id="6WeZvm8_WD35yYT35S7E-123" value="" style="shape=partialRectangle;overflow=hidden;connectable=0;fillColor=none;top=0;left=0;bottom=0;right=0;fontSize=14;" parent="6WeZvm8_WD35yYT35S7E-122" vertex="1">
          <mxGeometry width="30" height="35" as="geometry">
            <mxRectangle width="30" height="35" as="alternateBounds" />
          </mxGeometry>
        </mxCell>
        <mxCell id="6WeZvm8_WD35yYT35S7E-124" value="NomPlat VARCHAR" style="shape=partialRectangle;overflow=hidden;connectable=0;fillColor=none;top=0;left=0;bottom=0;right=0;align=left;spacingLeft=6;fontSize=14;" parent="6WeZvm8_WD35yYT35S7E-122" vertex="1">
          <mxGeometry x="30" width="300" height="35" as="geometry">
            <mxRectangle width="300" height="35" as="alternateBounds" />
          </mxGeometry>
        </mxCell>
        <mxCell id="6WeZvm8_WD35yYT35S7E-125" value="" style="shape=partialRectangle;collapsible=0;dropTarget=0;pointerEvents=0;fillColor=none;points=[[0,0.5],[1,0.5]];portConstraint=eastwest;top=0;left=0;right=0;bottom=0;fontSize=14;" parent="6WeZvm8_WD35yYT35S7E-115" vertex="1">
          <mxGeometry y="125" width="330" height="30" as="geometry" />
        </mxCell>
        <mxCell id="6WeZvm8_WD35yYT35S7E-126" value="" style="shape=partialRectangle;overflow=hidden;connectable=0;fillColor=none;top=0;left=0;bottom=0;right=0;fontSize=14;" parent="6WeZvm8_WD35yYT35S7E-125" vertex="1">
          <mxGeometry width="30" height="30" as="geometry">
            <mxRectangle width="30" height="30" as="alternateBounds" />
          </mxGeometry>
        </mxCell>
        <mxCell id="6WeZvm8_WD35yYT35S7E-127" value="NombrePlats INT" style="shape=partialRectangle;overflow=hidden;connectable=0;fillColor=none;top=0;left=0;bottom=0;right=0;align=left;spacingLeft=6;fontSize=14;" parent="6WeZvm8_WD35yYT35S7E-125" vertex="1">
          <mxGeometry x="30" width="300" height="30" as="geometry">
            <mxRectangle width="300" height="30" as="alternateBounds" />
          </mxGeometry>
        </mxCell>
        <mxCell id="6WeZvm8_WD35yYT35S7E-144" value="Recettes" style="shape=table;startSize=30;container=1;collapsible=1;childLayout=tableLayout;fixedRows=1;rowLines=0;fontStyle=1;align=center;resizeLast=1;fontSize=14;" parent="1" vertex="1">
          <mxGeometry x="-1260" y="1430" width="330" height="240" as="geometry" />
        </mxCell>
        <mxCell id="af0TB9c_zcL4LdSyrlM3-20" value="" style="shape=partialRectangle;collapsible=0;dropTarget=0;pointerEvents=0;fillColor=none;points=[[0,0.5],[1,0.5]];portConstraint=eastwest;top=0;left=0;right=0;bottom=1;fontSize=14;" parent="6WeZvm8_WD35yYT35S7E-144" vertex="1">
          <mxGeometry y="30" width="330" height="30" as="geometry" />
        </mxCell>
        <mxCell id="af0TB9c_zcL4LdSyrlM3-21" value="PK" style="shape=partialRectangle;overflow=hidden;connectable=0;fillColor=none;top=0;left=0;bottom=0;right=0;fontStyle=1;fontSize=14;" parent="af0TB9c_zcL4LdSyrlM3-20" vertex="1">
          <mxGeometry width="30" height="30" as="geometry">
            <mxRectangle width="30" height="30" as="alternateBounds" />
          </mxGeometry>
        </mxCell>
        <mxCell id="af0TB9c_zcL4LdSyrlM3-22" value="RecetteID INT AUTO_INCREMENTÂ " style="shape=partialRectangle;overflow=hidden;connectable=0;fillColor=none;top=0;left=0;bottom=0;right=0;align=left;spacingLeft=6;fontStyle=5;fontSize=14;" parent="af0TB9c_zcL4LdSyrlM3-20" vertex="1">
          <mxGeometry x="30" width="300" height="30" as="geometry">
            <mxRectangle width="300" height="30" as="alternateBounds" />
          </mxGeometry>
        </mxCell>
        <mxCell id="6WeZvm8_WD35yYT35S7E-145" value="" style="shape=partialRectangle;collapsible=0;dropTarget=0;pointerEvents=0;fillColor=none;points=[[0,0.5],[1,0.5]];portConstraint=eastwest;top=0;left=0;right=0;bottom=1;fontSize=14;" parent="6WeZvm8_WD35yYT35S7E-144" vertex="1">
          <mxGeometry y="60" width="330" height="30" as="geometry" />
        </mxCell>
        <mxCell id="6WeZvm8_WD35yYT35S7E-146" value="FK" style="shape=partialRectangle;overflow=hidden;connectable=0;fillColor=none;top=0;left=0;bottom=0;right=0;fontStyle=1;fontSize=14;" parent="6WeZvm8_WD35yYT35S7E-145" vertex="1">
          <mxGeometry width="30" height="30" as="geometry">
            <mxRectangle width="30" height="30" as="alternateBounds" />
          </mxGeometry>
        </mxCell>
        <mxCell id="6WeZvm8_WD35yYT35S7E-147" value="CategorieID INT AUTO_INCREMENTÂ " style="shape=partialRectangle;overflow=hidden;connectable=0;fillColor=none;top=0;left=0;bottom=0;right=0;align=left;spacingLeft=6;fontStyle=5;fontSize=14;" parent="6WeZvm8_WD35yYT35S7E-145" vertex="1">
          <mxGeometry x="30" width="300" height="30" as="geometry">
            <mxRectangle width="300" height="30" as="alternateBounds" />
          </mxGeometry>
        </mxCell>
        <mxCell id="6WeZvm8_WD35yYT35S7E-148" value="" style="shape=partialRectangle;collapsible=0;dropTarget=0;pointerEvents=0;fillColor=none;points=[[0,0.5],[1,0.5]];portConstraint=eastwest;top=0;left=0;right=0;bottom=0;fontSize=14;" parent="6WeZvm8_WD35yYT35S7E-144" vertex="1">
          <mxGeometry y="90" width="330" height="30" as="geometry" />
        </mxCell>
        <mxCell id="6WeZvm8_WD35yYT35S7E-149" value="" style="shape=partialRectangle;overflow=hidden;connectable=0;fillColor=none;top=0;left=0;bottom=0;right=0;fontSize=14;" parent="6WeZvm8_WD35yYT35S7E-148" vertex="1">
          <mxGeometry width="30" height="30" as="geometry">
            <mxRectangle width="30" height="30" as="alternateBounds" />
          </mxGeometry>
        </mxCell>
        <mxCell id="6WeZvm8_WD35yYT35S7E-150" value="NomRecette VARCHAR" style="shape=partialRectangle;overflow=hidden;connectable=0;fillColor=none;top=0;left=0;bottom=0;right=0;align=left;spacingLeft=6;fontSize=14;" parent="6WeZvm8_WD35yYT35S7E-148" vertex="1">
          <mxGeometry x="30" width="300" height="30" as="geometry">
            <mxRectangle width="300" height="30" as="alternateBounds" />
          </mxGeometry>
        </mxCell>
        <mxCell id="6WeZvm8_WD35yYT35S7E-151" value="" style="shape=partialRectangle;collapsible=0;dropTarget=0;pointerEvents=0;fillColor=none;points=[[0,0.5],[1,0.5]];portConstraint=eastwest;top=0;left=0;right=0;bottom=0;fontSize=14;" parent="6WeZvm8_WD35yYT35S7E-144" vertex="1">
          <mxGeometry y="120" width="330" height="30" as="geometry" />
        </mxCell>
        <mxCell id="6WeZvm8_WD35yYT35S7E-152" value="" style="shape=partialRectangle;overflow=hidden;connectable=0;fillColor=none;top=0;left=0;bottom=0;right=0;fontSize=14;" parent="6WeZvm8_WD35yYT35S7E-151" vertex="1">
          <mxGeometry width="30" height="30" as="geometry">
            <mxRectangle width="30" height="30" as="alternateBounds" />
          </mxGeometry>
        </mxCell>
        <mxCell id="6WeZvm8_WD35yYT35S7E-153" value="NombrePersonnes INT" style="shape=partialRectangle;overflow=hidden;connectable=0;fillColor=none;top=0;left=0;bottom=0;right=0;align=left;spacingLeft=6;fontSize=14;" parent="6WeZvm8_WD35yYT35S7E-151" vertex="1">
          <mxGeometry x="30" width="300" height="30" as="geometry">
            <mxRectangle width="300" height="30" as="alternateBounds" />
          </mxGeometry>
        </mxCell>
        <mxCell id="6WeZvm8_WD35yYT35S7E-154" value="" style="shape=partialRectangle;collapsible=0;dropTarget=0;pointerEvents=0;fillColor=none;points=[[0,0.5],[1,0.5]];portConstraint=eastwest;top=0;left=0;right=0;bottom=0;fontSize=14;" parent="6WeZvm8_WD35yYT35S7E-144" vertex="1">
          <mxGeometry y="150" width="330" height="30" as="geometry" />
        </mxCell>
        <mxCell id="6WeZvm8_WD35yYT35S7E-155" value="" style="shape=partialRectangle;overflow=hidden;connectable=0;fillColor=none;top=0;left=0;bottom=0;right=0;fontSize=14;" parent="6WeZvm8_WD35yYT35S7E-154" vertex="1">
          <mxGeometry width="30" height="30" as="geometry">
            <mxRectangle width="30" height="30" as="alternateBounds" />
          </mxGeometry>
        </mxCell>
        <mxCell id="6WeZvm8_WD35yYT35S7E-156" value="TempsPreparation TIME" style="shape=partialRectangle;overflow=hidden;connectable=0;fillColor=none;top=0;left=0;bottom=0;right=0;align=left;spacingLeft=6;fontSize=14;" parent="6WeZvm8_WD35yYT35S7E-154" vertex="1">
          <mxGeometry x="30" width="300" height="30" as="geometry">
            <mxRectangle width="300" height="30" as="alternateBounds" />
          </mxGeometry>
        </mxCell>
        <mxCell id="af0TB9c_zcL4LdSyrlM3-17" value="" style="shape=partialRectangle;collapsible=0;dropTarget=0;pointerEvents=0;fillColor=none;points=[[0,0.5],[1,0.5]];portConstraint=eastwest;top=0;left=0;right=0;bottom=0;fontSize=14;" parent="6WeZvm8_WD35yYT35S7E-144" vertex="1">
          <mxGeometry y="180" width="330" height="30" as="geometry" />
        </mxCell>
        <mxCell id="af0TB9c_zcL4LdSyrlM3-18" value="" style="shape=partialRectangle;overflow=hidden;connectable=0;fillColor=none;top=0;left=0;bottom=0;right=0;fontSize=14;" parent="af0TB9c_zcL4LdSyrlM3-17" vertex="1">
          <mxGeometry width="30" height="30" as="geometry">
            <mxRectangle width="30" height="30" as="alternateBounds" />
          </mxGeometry>
        </mxCell>
        <mxCell id="af0TB9c_zcL4LdSyrlM3-19" value="TempsCuisson TIME" style="shape=partialRectangle;overflow=hidden;connectable=0;fillColor=none;top=0;left=0;bottom=0;right=0;align=left;spacingLeft=6;fontSize=14;" parent="af0TB9c_zcL4LdSyrlM3-17" vertex="1">
          <mxGeometry x="30" width="300" height="30" as="geometry">
            <mxRectangle width="300" height="30" as="alternateBounds" />
          </mxGeometry>
        </mxCell>
        <mxCell id="af0TB9c_zcL4LdSyrlM3-29" value="" style="shape=partialRectangle;collapsible=0;dropTarget=0;pointerEvents=0;fillColor=none;points=[[0,0.5],[1,0.5]];portConstraint=eastwest;top=0;left=0;right=0;bottom=0;fontSize=14;" parent="6WeZvm8_WD35yYT35S7E-144" vertex="1">
          <mxGeometry y="210" width="330" height="30" as="geometry" />
        </mxCell>
        <mxCell id="af0TB9c_zcL4LdSyrlM3-30" value="" style="shape=partialRectangle;overflow=hidden;connectable=0;fillColor=none;top=0;left=0;bottom=0;right=0;fontSize=14;" parent="af0TB9c_zcL4LdSyrlM3-29" vertex="1">
          <mxGeometry width="30" height="30" as="geometry">
            <mxRectangle width="30" height="30" as="alternateBounds" />
          </mxGeometry>
        </mxCell>
        <mxCell id="af0TB9c_zcL4LdSyrlM3-31" value="TempsRepos TIME" style="shape=partialRectangle;overflow=hidden;connectable=0;fillColor=none;top=0;left=0;bottom=0;right=0;align=left;spacingLeft=6;fontSize=14;" parent="af0TB9c_zcL4LdSyrlM3-29" vertex="1">
          <mxGeometry x="30" width="300" height="30" as="geometry">
            <mxRectangle width="300" height="30" as="alternateBounds" />
          </mxGeometry>
        </mxCell>
        <mxCell id="6WeZvm8_WD35yYT35S7E-205" value="Ingredients" style="shape=table;startSize=30;container=1;collapsible=1;childLayout=tableLayout;fixedRows=1;rowLines=0;fontStyle=1;align=center;resizeLast=1;fontSize=14;" parent="1" vertex="1">
          <mxGeometry x="-1260" y="1010" width="360" height="150" as="geometry" />
        </mxCell>
        <mxCell id="6WeZvm8_WD35yYT35S7E-219" value="" style="shape=partialRectangle;collapsible=0;dropTarget=0;pointerEvents=0;fillColor=none;points=[[0,0.5],[1,0.5]];portConstraint=eastwest;top=0;left=0;right=0;bottom=1;fontSize=14;" parent="6WeZvm8_WD35yYT35S7E-205" vertex="1">
          <mxGeometry y="30" width="360" height="30" as="geometry" />
        </mxCell>
        <mxCell id="6WeZvm8_WD35yYT35S7E-220" value="PK" style="shape=partialRectangle;overflow=hidden;connectable=0;fillColor=none;top=0;left=0;bottom=0;right=0;fontStyle=1;fontSize=14;" parent="6WeZvm8_WD35yYT35S7E-219" vertex="1">
          <mxGeometry width="30" height="30" as="geometry">
            <mxRectangle width="30" height="30" as="alternateBounds" />
          </mxGeometry>
        </mxCell>
        <mxCell id="6WeZvm8_WD35yYT35S7E-221" value="IngredientID INT AUTO_INCREMENT NOT NULL " style="shape=partialRectangle;overflow=hidden;connectable=0;fillColor=none;top=0;left=0;bottom=0;right=0;align=left;spacingLeft=6;fontStyle=5;fontSize=14;" parent="6WeZvm8_WD35yYT35S7E-219" vertex="1">
          <mxGeometry x="30" width="330" height="30" as="geometry">
            <mxRectangle width="330" height="30" as="alternateBounds" />
          </mxGeometry>
        </mxCell>
        <mxCell id="6WeZvm8_WD35yYT35S7E-206" value="" style="shape=partialRectangle;collapsible=0;dropTarget=0;pointerEvents=0;fillColor=none;points=[[0,0.5],[1,0.5]];portConstraint=eastwest;top=0;left=0;right=0;bottom=1;fontSize=14;" parent="6WeZvm8_WD35yYT35S7E-205" vertex="1">
          <mxGeometry y="60" width="360" height="30" as="geometry" />
        </mxCell>
        <mxCell id="6WeZvm8_WD35yYT35S7E-207" value="FK1" style="shape=partialRectangle;overflow=hidden;connectable=0;fillColor=none;top=0;left=0;bottom=0;right=0;fontStyle=1;fontSize=14;" parent="6WeZvm8_WD35yYT35S7E-206" vertex="1">
          <mxGeometry width="30" height="30" as="geometry">
            <mxRectangle width="30" height="30" as="alternateBounds" />
          </mxGeometry>
        </mxCell>
        <mxCell id="6WeZvm8_WD35yYT35S7E-208" value="ProduitID INT AUTO_INCREMENT NOT NULL " style="shape=partialRectangle;overflow=hidden;connectable=0;fillColor=none;top=0;left=0;bottom=0;right=0;align=left;spacingLeft=6;fontStyle=5;fontSize=14;" parent="6WeZvm8_WD35yYT35S7E-206" vertex="1">
          <mxGeometry x="30" width="330" height="30" as="geometry">
            <mxRectangle width="330" height="30" as="alternateBounds" />
          </mxGeometry>
        </mxCell>
        <mxCell id="6WeZvm8_WD35yYT35S7E-209" value="" style="shape=partialRectangle;collapsible=0;dropTarget=0;pointerEvents=0;fillColor=none;points=[[0,0.5],[1,0.5]];portConstraint=eastwest;top=0;left=0;right=0;bottom=1;fontSize=14;" parent="6WeZvm8_WD35yYT35S7E-205" vertex="1">
          <mxGeometry y="90" width="360" height="30" as="geometry" />
        </mxCell>
        <mxCell id="6WeZvm8_WD35yYT35S7E-210" value="FK2" style="shape=partialRectangle;overflow=hidden;connectable=0;fillColor=none;top=0;left=0;bottom=0;right=0;fontStyle=1;fontSize=14;" parent="6WeZvm8_WD35yYT35S7E-209" vertex="1">
          <mxGeometry width="30" height="30" as="geometry">
            <mxRectangle width="30" height="30" as="alternateBounds" />
          </mxGeometry>
        </mxCell>
        <mxCell id="6WeZvm8_WD35yYT35S7E-211" value="RecetteID INT AUTO_INCREMENT NOT NULL " style="shape=partialRectangle;overflow=hidden;connectable=0;fillColor=none;top=0;left=0;bottom=0;right=0;align=left;spacingLeft=6;fontStyle=5;fontSize=14;" parent="6WeZvm8_WD35yYT35S7E-209" vertex="1">
          <mxGeometry x="30" width="330" height="30" as="geometry">
            <mxRectangle width="330" height="30" as="alternateBounds" />
          </mxGeometry>
        </mxCell>
        <mxCell id="6WeZvm8_WD35yYT35S7E-212" value="" style="shape=partialRectangle;collapsible=0;dropTarget=0;pointerEvents=0;fillColor=none;points=[[0,0.5],[1,0.5]];portConstraint=eastwest;top=0;left=0;right=0;bottom=0;fontSize=14;" parent="6WeZvm8_WD35yYT35S7E-205" vertex="1">
          <mxGeometry y="120" width="360" height="30" as="geometry" />
        </mxCell>
        <mxCell id="6WeZvm8_WD35yYT35S7E-213" value="" style="shape=partialRectangle;overflow=hidden;connectable=0;fillColor=none;top=0;left=0;bottom=0;right=0;fontSize=14;" parent="6WeZvm8_WD35yYT35S7E-212" vertex="1">
          <mxGeometry width="30" height="30" as="geometry">
            <mxRectangle width="30" height="30" as="alternateBounds" />
          </mxGeometry>
        </mxCell>
        <mxCell id="6WeZvm8_WD35yYT35S7E-214" value="QuantitÃ© INT" style="shape=partialRectangle;overflow=hidden;connectable=0;fillColor=none;top=0;left=0;bottom=0;right=0;align=left;spacingLeft=6;fontSize=14;" parent="6WeZvm8_WD35yYT35S7E-212" vertex="1">
          <mxGeometry x="30" width="330" height="30" as="geometry">
            <mxRectangle width="330" height="30" as="alternateBounds" />
          </mxGeometry>
        </mxCell>
        <mxCell id="6WeZvm8_WD35yYT35S7E-228" value="1" style="text;html=1;align=center;verticalAlign=middle;whiteSpace=wrap;rounded=0;fontSize=14;" parent="1" vertex="1">
          <mxGeometry x="-2120" y="1412.5" width="70" height="40" as="geometry" />
        </mxCell>
        <mxCell id="6WeZvm8_WD35yYT35S7E-236" value="Reservation" style="shape=table;startSize=30;container=1;collapsible=1;childLayout=tableLayout;fixedRows=1;rowLines=0;fontStyle=1;align=center;resizeLast=1;fontSize=14;" parent="1" vertex="1">
          <mxGeometry x="-1750" y="990" width="330" height="210" as="geometry" />
        </mxCell>
        <mxCell id="6WeZvm8_WD35yYT35S7E-237" value="" style="shape=partialRectangle;collapsible=0;dropTarget=0;pointerEvents=0;fillColor=none;points=[[0,0.5],[1,0.5]];portConstraint=eastwest;top=0;left=0;right=0;bottom=1;fontSize=14;" parent="6WeZvm8_WD35yYT35S7E-236" vertex="1">
          <mxGeometry y="30" width="330" height="30" as="geometry" />
        </mxCell>
        <mxCell id="6WeZvm8_WD35yYT35S7E-238" value="PK" style="shape=partialRectangle;overflow=hidden;connectable=0;fillColor=none;top=0;left=0;bottom=0;right=0;fontStyle=1;fontSize=14;" parent="6WeZvm8_WD35yYT35S7E-237" vertex="1">
          <mxGeometry width="30" height="30" as="geometry">
            <mxRectangle width="30" height="30" as="alternateBounds" />
          </mxGeometry>
        </mxCell>
        <mxCell id="6WeZvm8_WD35yYT35S7E-239" value="ReservationID INT AUTO_INCREMENT NOT NULL " style="shape=partialRectangle;overflow=hidden;connectable=0;fillColor=none;top=0;left=0;bottom=0;right=0;align=left;spacingLeft=6;fontStyle=5;fontSize=14;" parent="6WeZvm8_WD35yYT35S7E-237" vertex="1">
          <mxGeometry x="30" width="300" height="30" as="geometry">
            <mxRectangle width="300" height="30" as="alternateBounds" />
          </mxGeometry>
        </mxCell>
        <mxCell id="6WeZvm8_WD35yYT35S7E-240" value="" style="shape=partialRectangle;collapsible=0;dropTarget=0;pointerEvents=0;fillColor=none;points=[[0,0.5],[1,0.5]];portConstraint=eastwest;top=0;left=0;right=0;bottom=1;fontSize=14;" parent="6WeZvm8_WD35yYT35S7E-236" vertex="1">
          <mxGeometry y="60" width="330" height="30" as="geometry" />
        </mxCell>
        <mxCell id="6WeZvm8_WD35yYT35S7E-241" value="FK1" style="shape=partialRectangle;overflow=hidden;connectable=0;fillColor=none;top=0;left=0;bottom=0;right=0;fontStyle=1;fontSize=14;" parent="6WeZvm8_WD35yYT35S7E-240" vertex="1">
          <mxGeometry width="30" height="30" as="geometry">
            <mxRectangle width="30" height="30" as="alternateBounds" />
          </mxGeometry>
        </mxCell>
        <mxCell id="6WeZvm8_WD35yYT35S7E-242" value="TableID INT AUTO_INCREMENT NOT NULL " style="shape=partialRectangle;overflow=hidden;connectable=0;fillColor=none;top=0;left=0;bottom=0;right=0;align=left;spacingLeft=6;fontStyle=5;fontSize=14;" parent="6WeZvm8_WD35yYT35S7E-240" vertex="1">
          <mxGeometry x="30" width="300" height="30" as="geometry">
            <mxRectangle width="300" height="30" as="alternateBounds" />
          </mxGeometry>
        </mxCell>
        <mxCell id="6WeZvm8_WD35yYT35S7E-243" value="" style="shape=partialRectangle;collapsible=0;dropTarget=0;pointerEvents=0;fillColor=none;points=[[0,0.5],[1,0.5]];portConstraint=eastwest;top=0;left=0;right=0;bottom=0;fontSize=14;" parent="6WeZvm8_WD35yYT35S7E-236" vertex="1">
          <mxGeometry y="90" width="330" height="30" as="geometry" />
        </mxCell>
        <mxCell id="6WeZvm8_WD35yYT35S7E-244" value="" style="shape=partialRectangle;overflow=hidden;connectable=0;fillColor=none;top=0;left=0;bottom=0;right=0;fontSize=14;" parent="6WeZvm8_WD35yYT35S7E-243" vertex="1">
          <mxGeometry width="30" height="30" as="geometry">
            <mxRectangle width="30" height="30" as="alternateBounds" />
          </mxGeometry>
        </mxCell>
        <mxCell id="6WeZvm8_WD35yYT35S7E-245" value="NomClient VARCHAR" style="shape=partialRectangle;overflow=hidden;connectable=0;fillColor=none;top=0;left=0;bottom=0;right=0;align=left;spacingLeft=6;fontSize=14;" parent="6WeZvm8_WD35yYT35S7E-243" vertex="1">
          <mxGeometry x="30" width="300" height="30" as="geometry">
            <mxRectangle width="300" height="30" as="alternateBounds" />
          </mxGeometry>
        </mxCell>
        <mxCell id="6WeZvm8_WD35yYT35S7E-246" value="" style="shape=partialRectangle;collapsible=0;dropTarget=0;pointerEvents=0;fillColor=none;points=[[0,0.5],[1,0.5]];portConstraint=eastwest;top=0;left=0;right=0;bottom=0;fontSize=14;" parent="6WeZvm8_WD35yYT35S7E-236" vertex="1">
          <mxGeometry y="120" width="330" height="30" as="geometry" />
        </mxCell>
        <mxCell id="6WeZvm8_WD35yYT35S7E-247" value="" style="shape=partialRectangle;overflow=hidden;connectable=0;fillColor=none;top=0;left=0;bottom=0;right=0;fontSize=14;" parent="6WeZvm8_WD35yYT35S7E-246" vertex="1">
          <mxGeometry width="30" height="30" as="geometry">
            <mxRectangle width="30" height="30" as="alternateBounds" />
          </mxGeometry>
        </mxCell>
        <mxCell id="6WeZvm8_WD35yYT35S7E-248" value="DateReservation DATE" style="shape=partialRectangle;overflow=hidden;connectable=0;fillColor=none;top=0;left=0;bottom=0;right=0;align=left;spacingLeft=6;fontSize=14;" parent="6WeZvm8_WD35yYT35S7E-246" vertex="1">
          <mxGeometry x="30" width="300" height="30" as="geometry">
            <mxRectangle width="300" height="30" as="alternateBounds" />
          </mxGeometry>
        </mxCell>
        <mxCell id="6WeZvm8_WD35yYT35S7E-249" value="" style="shape=partialRectangle;collapsible=0;dropTarget=0;pointerEvents=0;fillColor=none;points=[[0,0.5],[1,0.5]];portConstraint=eastwest;top=0;left=0;right=0;bottom=0;fontSize=14;" parent="6WeZvm8_WD35yYT35S7E-236" vertex="1">
          <mxGeometry y="150" width="330" height="30" as="geometry" />
        </mxCell>
        <mxCell id="6WeZvm8_WD35yYT35S7E-250" value="" style="shape=partialRectangle;overflow=hidden;connectable=0;fillColor=none;top=0;left=0;bottom=0;right=0;fontSize=14;" parent="6WeZvm8_WD35yYT35S7E-249" vertex="1">
          <mxGeometry width="30" height="30" as="geometry">
            <mxRectangle width="30" height="30" as="alternateBounds" />
          </mxGeometry>
        </mxCell>
        <mxCell id="6WeZvm8_WD35yYT35S7E-251" value="HeureReservation TIME" style="shape=partialRectangle;overflow=hidden;connectable=0;fillColor=none;top=0;left=0;bottom=0;right=0;align=left;spacingLeft=6;fontSize=14;" parent="6WeZvm8_WD35yYT35S7E-249" vertex="1">
          <mxGeometry x="30" width="300" height="30" as="geometry">
            <mxRectangle width="300" height="30" as="alternateBounds" />
          </mxGeometry>
        </mxCell>
        <mxCell id="6WeZvm8_WD35yYT35S7E-252" value="" style="shape=partialRectangle;collapsible=0;dropTarget=0;pointerEvents=0;fillColor=none;points=[[0,0.5],[1,0.5]];portConstraint=eastwest;top=0;left=0;right=0;bottom=0;fontSize=14;" parent="6WeZvm8_WD35yYT35S7E-236" vertex="1">
          <mxGeometry y="180" width="330" height="30" as="geometry" />
        </mxCell>
        <mxCell id="6WeZvm8_WD35yYT35S7E-253" value="" style="shape=partialRectangle;overflow=hidden;connectable=0;fillColor=none;top=0;left=0;bottom=0;right=0;fontSize=14;" parent="6WeZvm8_WD35yYT35S7E-252" vertex="1">
          <mxGeometry width="30" height="30" as="geometry">
            <mxRectangle width="30" height="30" as="alternateBounds" />
          </mxGeometry>
        </mxCell>
        <mxCell id="6WeZvm8_WD35yYT35S7E-254" value="NombrePersonnes INT" style="shape=partialRectangle;overflow=hidden;connectable=0;fillColor=none;top=0;left=0;bottom=0;right=0;align=left;spacingLeft=6;fontSize=14;" parent="6WeZvm8_WD35yYT35S7E-252" vertex="1">
          <mxGeometry x="30" width="300" height="30" as="geometry">
            <mxRectangle width="300" height="30" as="alternateBounds" />
          </mxGeometry>
        </mxCell>
        <mxCell id="6WeZvm8_WD35yYT35S7E-255" value="" style="endArrow=none;html=1;rounded=0;fontFamily=Helvetica;fontSize=14;fontColor=default;" parent="1" source="6WeZvm8_WD35yYT35S7E-236" target="6WeZvm8_WD35yYT35S7E-49" edge="1">
          <mxGeometry width="50" height="50" relative="1" as="geometry">
            <mxPoint x="-1470" y="950" as="sourcePoint" />
            <mxPoint x="-1420" y="900" as="targetPoint" />
            <Array as="points">
              <mxPoint x="-1890" y="750" />
            </Array>
          </mxGeometry>
        </mxCell>
        <mxCell id="6WeZvm8_WD35yYT35S7E-258" value="N" style="text;html=1;align=center;verticalAlign=middle;whiteSpace=wrap;rounded=0;fontSize=14;" parent="1" vertex="1">
          <mxGeometry x="-1810" y="1470" width="70" height="40" as="geometry" />
        </mxCell>
        <mxCell id="6WeZvm8_WD35yYT35S7E-259" value="1" style="text;html=1;align=center;verticalAlign=middle;whiteSpace=wrap;rounded=0;fontSize=14;" parent="1" vertex="1">
          <mxGeometry x="-1900" y="420" width="70" height="40" as="geometry" />
        </mxCell>
        <mxCell id="6WeZvm8_WD35yYT35S7E-260" value="N" style="text;html=1;align=center;verticalAlign=middle;whiteSpace=wrap;rounded=0;fontSize=14;" parent="1" vertex="1">
          <mxGeometry x="-1700" y="940" width="70" height="40" as="geometry" />
        </mxCell>
        <mxCell id="6WeZvm8_WD35yYT35S7E-261" value="Tables" style="shape=table;startSize=30;container=1;collapsible=1;childLayout=tableLayout;fixedRows=1;rowLines=0;fontStyle=1;align=center;resizeLast=1;fontSize=14;" parent="1" vertex="1">
          <mxGeometry x="-1750" y="1440" width="350" height="150" as="geometry" />
        </mxCell>
        <mxCell id="6WeZvm8_WD35yYT35S7E-262" value="" style="shape=partialRectangle;collapsible=0;dropTarget=0;pointerEvents=0;fillColor=none;points=[[0,0.5],[1,0.5]];portConstraint=eastwest;top=0;left=0;right=0;bottom=1;fontSize=14;" parent="6WeZvm8_WD35yYT35S7E-261" vertex="1">
          <mxGeometry y="30" width="350" height="30" as="geometry" />
        </mxCell>
        <mxCell id="6WeZvm8_WD35yYT35S7E-263" value="PK" style="shape=partialRectangle;overflow=hidden;connectable=0;fillColor=none;top=0;left=0;bottom=0;right=0;fontStyle=1;fontSize=14;" parent="6WeZvm8_WD35yYT35S7E-262" vertex="1">
          <mxGeometry width="30" height="30" as="geometry">
            <mxRectangle width="30" height="30" as="alternateBounds" />
          </mxGeometry>
        </mxCell>
        <mxCell id="6WeZvm8_WD35yYT35S7E-264" value="TableID INT AUTO_INCREMENT NOT NULL " style="shape=partialRectangle;overflow=hidden;connectable=0;fillColor=none;top=0;left=0;bottom=0;right=0;align=left;spacingLeft=6;fontStyle=5;fontSize=14;" parent="6WeZvm8_WD35yYT35S7E-262" vertex="1">
          <mxGeometry x="30" width="320" height="30" as="geometry">
            <mxRectangle width="320" height="30" as="alternateBounds" />
          </mxGeometry>
        </mxCell>
        <mxCell id="6WeZvm8_WD35yYT35S7E-265" value="" style="shape=partialRectangle;collapsible=0;dropTarget=0;pointerEvents=0;fillColor=none;points=[[0,0.5],[1,0.5]];portConstraint=eastwest;top=0;left=0;right=0;bottom=1;fontSize=14;" parent="6WeZvm8_WD35yYT35S7E-261" vertex="1">
          <mxGeometry y="60" width="350" height="30" as="geometry" />
        </mxCell>
        <mxCell id="6WeZvm8_WD35yYT35S7E-266" value="FK1" style="shape=partialRectangle;overflow=hidden;connectable=0;fillColor=none;top=0;left=0;bottom=0;right=0;fontStyle=1;fontSize=14;" parent="6WeZvm8_WD35yYT35S7E-265" vertex="1">
          <mxGeometry width="30" height="30" as="geometry">
            <mxRectangle width="30" height="30" as="alternateBounds" />
          </mxGeometry>
        </mxCell>
        <mxCell id="6WeZvm8_WD35yYT35S7E-267" value="SecteurID INT AUTO_INCREMENT NOT NULL " style="shape=partialRectangle;overflow=hidden;connectable=0;fillColor=none;top=0;left=0;bottom=0;right=0;align=left;spacingLeft=6;fontStyle=5;fontSize=14;" parent="6WeZvm8_WD35yYT35S7E-265" vertex="1">
          <mxGeometry x="30" width="320" height="30" as="geometry">
            <mxRectangle width="320" height="30" as="alternateBounds" />
          </mxGeometry>
        </mxCell>
        <mxCell id="6WeZvm8_WD35yYT35S7E-268" value="" style="shape=partialRectangle;collapsible=0;dropTarget=0;pointerEvents=0;fillColor=none;points=[[0,0.5],[1,0.5]];portConstraint=eastwest;top=0;left=0;right=0;bottom=0;fontSize=14;" parent="6WeZvm8_WD35yYT35S7E-261" vertex="1">
          <mxGeometry y="90" width="350" height="30" as="geometry" />
        </mxCell>
        <mxCell id="6WeZvm8_WD35yYT35S7E-269" value="" style="shape=partialRectangle;overflow=hidden;connectable=0;fillColor=none;top=0;left=0;bottom=0;right=0;fontSize=14;" parent="6WeZvm8_WD35yYT35S7E-268" vertex="1">
          <mxGeometry width="30" height="30" as="geometry">
            <mxRectangle width="30" height="30" as="alternateBounds" />
          </mxGeometry>
        </mxCell>
        <mxCell id="6WeZvm8_WD35yYT35S7E-270" value="CapacitÃ© INT NOT NULL" style="shape=partialRectangle;overflow=hidden;connectable=0;fillColor=none;top=0;left=0;bottom=0;right=0;align=left;spacingLeft=6;fontSize=14;" parent="6WeZvm8_WD35yYT35S7E-268" vertex="1">
          <mxGeometry x="30" width="320" height="30" as="geometry">
            <mxRectangle width="320" height="30" as="alternateBounds" />
          </mxGeometry>
        </mxCell>
        <mxCell id="6WeZvm8_WD35yYT35S7E-271" value="" style="shape=partialRectangle;collapsible=0;dropTarget=0;pointerEvents=0;fillColor=none;points=[[0,0.5],[1,0.5]];portConstraint=eastwest;top=0;left=0;right=0;bottom=0;fontSize=14;" parent="6WeZvm8_WD35yYT35S7E-261" vertex="1">
          <mxGeometry y="120" width="350" height="30" as="geometry" />
        </mxCell>
        <mxCell id="6WeZvm8_WD35yYT35S7E-272" value="" style="shape=partialRectangle;overflow=hidden;connectable=0;fillColor=none;top=0;left=0;bottom=0;right=0;fontSize=14;" parent="6WeZvm8_WD35yYT35S7E-271" vertex="1">
          <mxGeometry width="30" height="30" as="geometry">
            <mxRectangle width="30" height="30" as="alternateBounds" />
          </mxGeometry>
        </mxCell>
        <mxCell id="6WeZvm8_WD35yYT35S7E-273" value="Statut ENUM" style="shape=partialRectangle;overflow=hidden;connectable=0;fillColor=none;top=0;left=0;bottom=0;right=0;align=left;spacingLeft=6;fontSize=14;" parent="6WeZvm8_WD35yYT35S7E-271" vertex="1">
          <mxGeometry x="30" width="320" height="30" as="geometry">
            <mxRectangle width="320" height="30" as="alternateBounds" />
          </mxGeometry>
        </mxCell>
        <mxCell id="6WeZvm8_WD35yYT35S7E-274" value="" style="endArrow=none;html=1;rounded=0;fontFamily=Helvetica;fontSize=14;fontColor=default;exitX=0.472;exitY=0;exitDx=0;exitDy=0;entryX=0.501;entryY=0.897;entryDx=0;entryDy=0;entryPerimeter=0;exitPerimeter=0;" parent="1" source="6WeZvm8_WD35yYT35S7E-261" target="6WeZvm8_WD35yYT35S7E-252" edge="1">
          <mxGeometry width="50" height="50" relative="1" as="geometry">
            <mxPoint x="-2060" y="950" as="sourcePoint" />
            <mxPoint x="-2010" y="900" as="targetPoint" />
          </mxGeometry>
        </mxCell>
        <mxCell id="6WeZvm8_WD35yYT35S7E-275" value="1" style="text;html=1;align=center;verticalAlign=middle;whiteSpace=wrap;rounded=0;fontSize=14;" parent="1" vertex="1">
          <mxGeometry x="-1600" y="1210" width="70" height="40" as="geometry" />
        </mxCell>
        <mxCell id="6WeZvm8_WD35yYT35S7E-276" value="1" style="text;html=1;align=center;verticalAlign=middle;whiteSpace=wrap;rounded=0;fontSize=14;" parent="1" vertex="1">
          <mxGeometry x="-1600" y="1400" width="70" height="40" as="geometry" />
        </mxCell>
        <mxCell id="6WeZvm8_WD35yYT35S7E-278" value="" style="endArrow=none;html=1;rounded=0;fontFamily=Helvetica;fontSize=14;fontColor=default;entryX=0.5;entryY=1;entryDx=0;entryDy=0;entryPerimeter=0;exitX=0.169;exitY=1.034;exitDx=0;exitDy=0;exitPerimeter=0;" parent="1" source="6WeZvm8_WD35yYT35S7E-280" target="6WeZvm8_WD35yYT35S7E-90" edge="1">
          <mxGeometry width="50" height="50" relative="1" as="geometry">
            <mxPoint x="-1750" y="1120" as="sourcePoint" />
            <mxPoint x="-1700" y="1070" as="targetPoint" />
          </mxGeometry>
        </mxCell>
        <mxCell id="6WeZvm8_WD35yYT35S7E-279" value="1" style="text;html=1;align=center;verticalAlign=middle;whiteSpace=wrap;rounded=0;fontSize=14;" parent="1" vertex="1">
          <mxGeometry x="-1110" y="790" width="70" height="40" as="geometry" />
        </mxCell>
        <mxCell id="6WeZvm8_WD35yYT35S7E-280" value="N" style="text;html=1;align=center;verticalAlign=middle;whiteSpace=wrap;rounded=0;fontSize=14;" parent="1" vertex="1">
          <mxGeometry x="-1110" y="970" width="70" height="40" as="geometry" />
        </mxCell>
        <mxCell id="6WeZvm8_WD35yYT35S7E-281" value="" style="endArrow=none;html=1;rounded=0;fontFamily=Helvetica;fontSize=14;fontColor=default;exitX=0.25;exitY=1;exitDx=0;exitDy=0;entryX=0.455;entryY=0.994;entryDx=0;entryDy=0;entryPerimeter=0;" parent="1" source="6WeZvm8_WD35yYT35S7E-283" target="6WeZvm8_WD35yYT35S7E-212" edge="1">
          <mxGeometry width="50" height="50" relative="1" as="geometry">
            <mxPoint x="-1110" y="1440" as="sourcePoint" />
            <mxPoint x="-1095.78947368421" y="1170" as="targetPoint" />
          </mxGeometry>
        </mxCell>
        <mxCell id="6WeZvm8_WD35yYT35S7E-282" value="1" style="text;html=1;align=center;verticalAlign=middle;whiteSpace=wrap;rounded=0;fontSize=14;" parent="1" vertex="1">
          <mxGeometry x="-1110" y="1170" width="70" height="40" as="geometry" />
        </mxCell>
        <mxCell id="6WeZvm8_WD35yYT35S7E-283" value="N" style="text;html=1;align=center;verticalAlign=middle;whiteSpace=wrap;rounded=0;fontSize=14;" parent="1" vertex="1">
          <mxGeometry x="-1115" y="1390" width="70" height="40" as="geometry" />
        </mxCell>
        <mxCell id="6WeZvm8_WD35yYT35S7E-284" value="" style="endArrow=none;html=1;rounded=0;fontFamily=Helvetica;fontSize=14;fontColor=default;entryX=0.505;entryY=1.104;entryDx=0;entryDy=0;entryPerimeter=0;exitX=0.5;exitY=0;exitDx=0;exitDy=0;" parent="1" source="6WeZvm8_WD35yYT35S7E-115" target="6WeZvm8_WD35yYT35S7E-103" edge="1">
          <mxGeometry width="50" height="50" relative="1" as="geometry">
            <mxPoint x="-2120" y="1077.5" as="sourcePoint" />
            <mxPoint x="-2070" y="1027.5" as="targetPoint" />
          </mxGeometry>
        </mxCell>
        <mxCell id="6WeZvm8_WD35yYT35S7E-285" value="1" style="text;html=1;align=center;verticalAlign=middle;whiteSpace=wrap;rounded=0;fontSize=14;" parent="1" vertex="1">
          <mxGeometry x="-580" y="737.5" width="70" height="40" as="geometry" />
        </mxCell>
        <mxCell id="6WeZvm8_WD35yYT35S7E-286" value="N" style="text;html=1;align=center;verticalAlign=middle;whiteSpace=wrap;rounded=0;fontSize=14;" parent="1" vertex="1">
          <mxGeometry x="-570" y="1030" width="70" height="40" as="geometry" />
        </mxCell>
        <mxCell id="af0TB9c_zcL4LdSyrlM3-1" value="CatÃ©goriesRecettes" style="shape=table;startSize=30;container=1;collapsible=1;childLayout=tableLayout;fixedRows=1;rowLines=0;fontStyle=1;align=center;resizeLast=1;fontSize=14;" parent="1" vertex="1">
          <mxGeometry x="-1260" y="1890" width="330" height="90" as="geometry" />
        </mxCell>
        <mxCell id="af0TB9c_zcL4LdSyrlM3-2" value="" style="shape=partialRectangle;collapsible=0;dropTarget=0;pointerEvents=0;fillColor=none;points=[[0,0.5],[1,0.5]];portConstraint=eastwest;top=0;left=0;right=0;bottom=1;fontSize=14;" parent="af0TB9c_zcL4LdSyrlM3-1" vertex="1">
          <mxGeometry y="30" width="330" height="30" as="geometry" />
        </mxCell>
        <mxCell id="af0TB9c_zcL4LdSyrlM3-3" value="PK" style="shape=partialRectangle;overflow=hidden;connectable=0;fillColor=none;top=0;left=0;bottom=0;right=0;fontStyle=1;fontSize=14;" parent="af0TB9c_zcL4LdSyrlM3-2" vertex="1">
          <mxGeometry width="30" height="30" as="geometry">
            <mxRectangle width="30" height="30" as="alternateBounds" />
          </mxGeometry>
        </mxCell>
        <mxCell id="af0TB9c_zcL4LdSyrlM3-4" value="CategorieID INT AUTO_INCREMENTÂ " style="shape=partialRectangle;overflow=hidden;connectable=0;fillColor=none;top=0;left=0;bottom=0;right=0;align=left;spacingLeft=6;fontStyle=5;fontSize=14;" parent="af0TB9c_zcL4LdSyrlM3-2" vertex="1">
          <mxGeometry x="30" width="300" height="30" as="geometry">
            <mxRectangle width="300" height="30" as="alternateBounds" />
          </mxGeometry>
        </mxCell>
        <mxCell id="af0TB9c_zcL4LdSyrlM3-5" value="" style="shape=partialRectangle;collapsible=0;dropTarget=0;pointerEvents=0;fillColor=none;points=[[0,0.5],[1,0.5]];portConstraint=eastwest;top=0;left=0;right=0;bottom=0;fontSize=14;" parent="af0TB9c_zcL4LdSyrlM3-1" vertex="1">
          <mxGeometry y="60" width="330" height="30" as="geometry" />
        </mxCell>
        <mxCell id="af0TB9c_zcL4LdSyrlM3-6" value="" style="shape=partialRectangle;overflow=hidden;connectable=0;fillColor=none;top=0;left=0;bottom=0;right=0;fontSize=14;" parent="af0TB9c_zcL4LdSyrlM3-5" vertex="1">
          <mxGeometry width="30" height="30" as="geometry">
            <mxRectangle width="30" height="30" as="alternateBounds" />
          </mxGeometry>
        </mxCell>
        <mxCell id="af0TB9c_zcL4LdSyrlM3-7" value="NomCategorie VARCHAR" style="shape=partialRectangle;overflow=hidden;connectable=0;fillColor=none;top=0;left=0;bottom=0;right=0;align=left;spacingLeft=6;fontSize=14;" parent="af0TB9c_zcL4LdSyrlM3-5" vertex="1">
          <mxGeometry x="30" width="300" height="30" as="geometry">
            <mxRectangle width="300" height="30" as="alternateBounds" />
          </mxGeometry>
        </mxCell>
        <mxCell id="af0TB9c_zcL4LdSyrlM3-14" value="1" style="text;html=1;align=center;verticalAlign=middle;whiteSpace=wrap;rounded=0;fontSize=14;" parent="1" vertex="1">
          <mxGeometry x="-1115" y="1850" width="70" height="40" as="geometry" />
        </mxCell>
        <mxCell id="af0TB9c_zcL4LdSyrlM3-15" value="" style="endArrow=none;html=1;rounded=0;exitX=0.25;exitY=1;exitDx=0;exitDy=0;" parent="1" source="af0TB9c_zcL4LdSyrlM3-14" edge="1">
          <mxGeometry width="50" height="50" relative="1" as="geometry">
            <mxPoint x="-1130" y="1580" as="sourcePoint" />
            <mxPoint x="-1097" y="1670" as="targetPoint" />
            <Array as="points">
              <mxPoint x="-1097" y="1710" />
            </Array>
          </mxGeometry>
        </mxCell>
        <mxCell id="af0TB9c_zcL4LdSyrlM3-16" value="1" style="text;html=1;align=center;verticalAlign=middle;whiteSpace=wrap;rounded=0;fontSize=14;" parent="1" vertex="1">
          <mxGeometry x="-1115" y="1590" width="70" height="40" as="geometry" />
        </mxCell>
        <mxCell id="af0TB9c_zcL4LdSyrlM3-32" value="N" style="text;html=1;align=center;verticalAlign=middle;whiteSpace=wrap;rounded=0;fontSize=14;" parent="1" vertex="1">
          <mxGeometry x="-1110" y="1670" width="70" height="40" as="geometry" />
        </mxCell>
        <mxCell id="af0TB9c_zcL4LdSyrlM3-33" value="EtapesRecettes" style="shape=table;startSize=30;container=1;collapsible=1;childLayout=tableLayout;fixedRows=1;rowLines=0;fontStyle=1;align=center;resizeLast=1;fontSize=14;" parent="1" vertex="1">
          <mxGeometry x="-390" y="1460" width="330" height="150" as="geometry" />
        </mxCell>
        <mxCell id="af0TB9c_zcL4LdSyrlM3-46" value="" style="shape=partialRectangle;collapsible=0;dropTarget=0;pointerEvents=0;fillColor=none;points=[[0,0.5],[1,0.5]];portConstraint=eastwest;top=0;left=0;right=0;bottom=1;fontSize=14;" parent="af0TB9c_zcL4LdSyrlM3-33" vertex="1">
          <mxGeometry y="30" width="330" height="30" as="geometry" />
        </mxCell>
        <mxCell id="af0TB9c_zcL4LdSyrlM3-47" value="PK" style="shape=partialRectangle;overflow=hidden;connectable=0;fillColor=none;top=0;left=0;bottom=0;right=0;fontStyle=1;fontSize=14;" parent="af0TB9c_zcL4LdSyrlM3-46" vertex="1">
          <mxGeometry width="30" height="30" as="geometry">
            <mxRectangle width="30" height="30" as="alternateBounds" />
          </mxGeometry>
        </mxCell>
        <mxCell id="af0TB9c_zcL4LdSyrlM3-48" value="EtapeID INT AUTO_INCREMENT " style="shape=partialRectangle;overflow=hidden;connectable=0;fillColor=none;top=0;left=0;bottom=0;right=0;align=left;spacingLeft=6;fontStyle=5;fontSize=14;" parent="af0TB9c_zcL4LdSyrlM3-46" vertex="1">
          <mxGeometry x="30" width="300" height="30" as="geometry">
            <mxRectangle width="300" height="30" as="alternateBounds" />
          </mxGeometry>
        </mxCell>
        <mxCell id="af0TB9c_zcL4LdSyrlM3-34" value="" style="shape=partialRectangle;collapsible=0;dropTarget=0;pointerEvents=0;fillColor=none;points=[[0,0.5],[1,0.5]];portConstraint=eastwest;top=0;left=0;right=0;bottom=1;fontSize=14;" parent="af0TB9c_zcL4LdSyrlM3-33" vertex="1">
          <mxGeometry y="60" width="330" height="30" as="geometry" />
        </mxCell>
        <mxCell id="af0TB9c_zcL4LdSyrlM3-35" value="FK" style="shape=partialRectangle;overflow=hidden;connectable=0;fillColor=none;top=0;left=0;bottom=0;right=0;fontStyle=1;fontSize=14;" parent="af0TB9c_zcL4LdSyrlM3-34" vertex="1">
          <mxGeometry width="30" height="30" as="geometry">
            <mxRectangle width="30" height="30" as="alternateBounds" />
          </mxGeometry>
        </mxCell>
        <mxCell id="af0TB9c_zcL4LdSyrlM3-36" value="RecetteID INT AUTO_INCREMENT " style="shape=partialRectangle;overflow=hidden;connectable=0;fillColor=none;top=0;left=0;bottom=0;right=0;align=left;spacingLeft=6;fontStyle=5;fontSize=14;" parent="af0TB9c_zcL4LdSyrlM3-34" vertex="1">
          <mxGeometry x="30" width="300" height="30" as="geometry">
            <mxRectangle width="300" height="30" as="alternateBounds" />
          </mxGeometry>
        </mxCell>
        <mxCell id="af0TB9c_zcL4LdSyrlM3-37" value="" style="shape=partialRectangle;collapsible=0;dropTarget=0;pointerEvents=0;fillColor=none;points=[[0,0.5],[1,0.5]];portConstraint=eastwest;top=0;left=0;right=0;bottom=0;fontSize=14;" parent="af0TB9c_zcL4LdSyrlM3-33" vertex="1">
          <mxGeometry y="90" width="330" height="30" as="geometry" />
        </mxCell>
        <mxCell id="af0TB9c_zcL4LdSyrlM3-38" value="" style="shape=partialRectangle;overflow=hidden;connectable=0;fillColor=none;top=0;left=0;bottom=0;right=0;fontSize=14;" parent="af0TB9c_zcL4LdSyrlM3-37" vertex="1">
          <mxGeometry width="30" height="30" as="geometry">
            <mxRectangle width="30" height="30" as="alternateBounds" />
          </mxGeometry>
        </mxCell>
        <mxCell id="af0TB9c_zcL4LdSyrlM3-39" value="OrdreEtape INT" style="shape=partialRectangle;overflow=hidden;connectable=0;fillColor=none;top=0;left=0;bottom=0;right=0;align=left;spacingLeft=6;fontSize=14;" parent="af0TB9c_zcL4LdSyrlM3-37" vertex="1">
          <mxGeometry x="30" width="300" height="30" as="geometry">
            <mxRectangle width="300" height="30" as="alternateBounds" />
          </mxGeometry>
        </mxCell>
        <mxCell id="af0TB9c_zcL4LdSyrlM3-40" value="" style="shape=partialRectangle;collapsible=0;dropTarget=0;pointerEvents=0;fillColor=none;points=[[0,0.5],[1,0.5]];portConstraint=eastwest;top=0;left=0;right=0;bottom=0;fontSize=14;" parent="af0TB9c_zcL4LdSyrlM3-33" vertex="1">
          <mxGeometry y="120" width="330" height="30" as="geometry" />
        </mxCell>
        <mxCell id="af0TB9c_zcL4LdSyrlM3-41" value="" style="shape=partialRectangle;overflow=hidden;connectable=0;fillColor=none;top=0;left=0;bottom=0;right=0;fontSize=14;" parent="af0TB9c_zcL4LdSyrlM3-40" vertex="1">
          <mxGeometry width="30" height="30" as="geometry">
            <mxRectangle width="30" height="30" as="alternateBounds" />
          </mxGeometry>
        </mxCell>
        <mxCell id="af0TB9c_zcL4LdSyrlM3-42" value="DescriptionEtape" style="shape=partialRectangle;overflow=hidden;connectable=0;fillColor=none;top=0;left=0;bottom=0;right=0;align=left;spacingLeft=6;fontSize=14;" parent="af0TB9c_zcL4LdSyrlM3-40" vertex="1">
          <mxGeometry x="30" width="300" height="30" as="geometry">
            <mxRectangle width="300" height="30" as="alternateBounds" />
          </mxGeometry>
        </mxCell>
        <mxCell id="af0TB9c_zcL4LdSyrlM3-49" value="" style="endArrow=none;html=1;rounded=0;exitX=1;exitY=0.5;exitDx=0;exitDy=0;entryX=0;entryY=0.5;entryDx=0;entryDy=0;" parent="1" source="6WeZvm8_WD35yYT35S7E-148" target="af0TB9c_zcL4LdSyrlM3-34" edge="1">
          <mxGeometry width="50" height="50" relative="1" as="geometry">
            <mxPoint x="-730" y="940" as="sourcePoint" />
            <mxPoint x="-680" y="890" as="targetPoint" />
          </mxGeometry>
        </mxCell>
        <mxCell id="af0TB9c_zcL4LdSyrlM3-50" value="N" style="text;html=1;align=center;verticalAlign=middle;whiteSpace=wrap;rounded=0;fontSize=14;" parent="1" vertex="1">
          <mxGeometry x="-910" y="1040" width="70" height="40" as="geometry" />
        </mxCell>
        <mxCell id="af0TB9c_zcL4LdSyrlM3-51" value="N" style="text;html=1;align=center;verticalAlign=middle;whiteSpace=wrap;rounded=0;fontSize=14;" parent="1" vertex="1">
          <mxGeometry x="-480" y="1490" width="70" height="40" as="geometry" />
        </mxCell>
        <mxCell id="af0TB9c_zcL4LdSyrlM3-56" value="" style="endArrow=none;html=1;rounded=0;exitX=0.477;exitY=1.077;exitDx=0;exitDy=0;exitPerimeter=0;entryX=0;entryY=0.5;entryDx=0;entryDy=0;" parent="1" source="6WeZvm8_WD35yYT35S7E-11" target="6WeZvm8_WD35yYT35S7E-265" edge="1">
          <mxGeometry width="50" height="50" relative="1" as="geometry">
            <mxPoint x="-1880" y="1260" as="sourcePoint" />
            <mxPoint x="-1830" y="1210" as="targetPoint" />
            <Array as="points">
              <mxPoint x="-2103" y="1515" />
            </Array>
          </mxGeometry>
        </mxCell>
        <mxCell id="af0TB9c_zcL4LdSyrlM3-73" value="LogsTaches" style="shape=table;startSize=30;container=1;collapsible=1;childLayout=tableLayout;fixedRows=1;rowLines=0;fontStyle=1;align=center;resizeLast=1;fontSize=14;" parent="1" vertex="1">
          <mxGeometry x="-2390" y="610" width="360" height="150" as="geometry" />
        </mxCell>
        <mxCell id="af0TB9c_zcL4LdSyrlM3-74" value="" style="shape=partialRectangle;collapsible=0;dropTarget=0;pointerEvents=0;fillColor=none;points=[[0,0.5],[1,0.5]];portConstraint=eastwest;top=0;left=0;right=0;bottom=1;fontSize=14;" parent="af0TB9c_zcL4LdSyrlM3-73" vertex="1">
          <mxGeometry y="30" width="360" height="30" as="geometry" />
        </mxCell>
        <mxCell id="af0TB9c_zcL4LdSyrlM3-75" value="PK" style="shape=partialRectangle;overflow=hidden;connectable=0;fillColor=none;top=0;left=0;bottom=0;right=0;fontStyle=1;fontSize=14;" parent="af0TB9c_zcL4LdSyrlM3-74" vertex="1">
          <mxGeometry width="30" height="30" as="geometry">
            <mxRectangle width="30" height="30" as="alternateBounds" />
          </mxGeometry>
        </mxCell>
        <mxCell id="af0TB9c_zcL4LdSyrlM3-76" value="TacheID INT AUTO_INCREMENT NOT NULL " style="shape=partialRectangle;overflow=hidden;connectable=0;fillColor=none;top=0;left=0;bottom=0;right=0;align=left;spacingLeft=6;fontStyle=5;fontSize=14;" parent="af0TB9c_zcL4LdSyrlM3-74" vertex="1">
          <mxGeometry x="30" width="330" height="30" as="geometry">
            <mxRectangle width="330" height="30" as="alternateBounds" />
          </mxGeometry>
        </mxCell>
        <mxCell id="af0TB9c_zcL4LdSyrlM3-77" value="" style="shape=partialRectangle;collapsible=0;dropTarget=0;pointerEvents=0;fillColor=none;points=[[0,0.5],[1,0.5]];portConstraint=eastwest;top=0;left=0;right=0;bottom=1;fontSize=14;" parent="af0TB9c_zcL4LdSyrlM3-73" vertex="1">
          <mxGeometry y="60" width="360" height="30" as="geometry" />
        </mxCell>
        <mxCell id="af0TB9c_zcL4LdSyrlM3-78" value="FK1" style="shape=partialRectangle;overflow=hidden;connectable=0;fillColor=none;top=0;left=0;bottom=0;right=0;fontStyle=1;fontSize=14;" parent="af0TB9c_zcL4LdSyrlM3-77" vertex="1">
          <mxGeometry width="30" height="30" as="geometry">
            <mxRectangle width="30" height="30" as="alternateBounds" />
          </mxGeometry>
        </mxCell>
        <mxCell id="af0TB9c_zcL4LdSyrlM3-79" value="EmployeID INT AUTO_INCREMENT NOT NULL " style="shape=partialRectangle;overflow=hidden;connectable=0;fillColor=none;top=0;left=0;bottom=0;right=0;align=left;spacingLeft=6;fontStyle=5;fontSize=14;" parent="af0TB9c_zcL4LdSyrlM3-77" vertex="1">
          <mxGeometry x="30" width="330" height="30" as="geometry">
            <mxRectangle width="330" height="30" as="alternateBounds" />
          </mxGeometry>
        </mxCell>
        <mxCell id="af0TB9c_zcL4LdSyrlM3-80" value="" style="shape=partialRectangle;collapsible=0;dropTarget=0;pointerEvents=0;fillColor=none;points=[[0,0.5],[1,0.5]];portConstraint=eastwest;top=0;left=0;right=0;bottom=0;fontSize=14;" parent="af0TB9c_zcL4LdSyrlM3-73" vertex="1">
          <mxGeometry y="90" width="360" height="30" as="geometry" />
        </mxCell>
        <mxCell id="af0TB9c_zcL4LdSyrlM3-81" value="" style="shape=partialRectangle;overflow=hidden;connectable=0;fillColor=none;top=0;left=0;bottom=0;right=0;fontSize=14;" parent="af0TB9c_zcL4LdSyrlM3-80" vertex="1">
          <mxGeometry width="30" height="30" as="geometry">
            <mxRectangle width="30" height="30" as="alternateBounds" />
          </mxGeometry>
        </mxCell>
        <mxCell id="af0TB9c_zcL4LdSyrlM3-82" value="Description TEXT" style="shape=partialRectangle;overflow=hidden;connectable=0;fillColor=none;top=0;left=0;bottom=0;right=0;align=left;spacingLeft=6;fontSize=14;" parent="af0TB9c_zcL4LdSyrlM3-80" vertex="1">
          <mxGeometry x="30" width="330" height="30" as="geometry">
            <mxRectangle width="330" height="30" as="alternateBounds" />
          </mxGeometry>
        </mxCell>
        <mxCell id="af0TB9c_zcL4LdSyrlM3-83" value="" style="shape=partialRectangle;collapsible=0;dropTarget=0;pointerEvents=0;fillColor=none;points=[[0,0.5],[1,0.5]];portConstraint=eastwest;top=0;left=0;right=0;bottom=0;fontSize=14;" parent="af0TB9c_zcL4LdSyrlM3-73" vertex="1">
          <mxGeometry y="120" width="360" height="30" as="geometry" />
        </mxCell>
        <mxCell id="af0TB9c_zcL4LdSyrlM3-84" value="" style="shape=partialRectangle;overflow=hidden;connectable=0;fillColor=none;top=0;left=0;bottom=0;right=0;fontSize=14;" parent="af0TB9c_zcL4LdSyrlM3-83" vertex="1">
          <mxGeometry width="30" height="30" as="geometry">
            <mxRectangle width="30" height="30" as="alternateBounds" />
          </mxGeometry>
        </mxCell>
        <mxCell id="af0TB9c_zcL4LdSyrlM3-85" value="Timestamp DATETIME" style="shape=partialRectangle;overflow=hidden;connectable=0;fillColor=none;top=0;left=0;bottom=0;right=0;align=left;spacingLeft=6;fontSize=14;" parent="af0TB9c_zcL4LdSyrlM3-83" vertex="1">
          <mxGeometry x="30" width="330" height="30" as="geometry">
            <mxRectangle width="330" height="30" as="alternateBounds" />
          </mxGeometry>
        </mxCell>
        <mxCell id="af0TB9c_zcL4LdSyrlM3-86" value="N" style="text;html=1;align=center;verticalAlign=middle;whiteSpace=wrap;rounded=0;fontSize=14;" parent="1" vertex="1">
          <mxGeometry x="-2040" y="652.5" width="70" height="40" as="geometry" />
        </mxCell>
        <mxCell id="af0TB9c_zcL4LdSyrlM3-87" value="" style="endArrow=none;html=1;rounded=0;entryX=0;entryY=0.5;entryDx=0;entryDy=0;exitX=1;exitY=0.833;exitDx=0;exitDy=0;exitPerimeter=0;" parent="1" source="af0TB9c_zcL4LdSyrlM3-77" target="WO7DuQi57oJoATq72fEE-174" edge="1">
          <mxGeometry width="50" height="50" relative="1" as="geometry">
            <mxPoint x="-1980" y="692.5" as="sourcePoint" />
            <mxPoint x="-1720" y="722.5" as="targetPoint" />
          </mxGeometry>
        </mxCell>
        <mxCell id="af0TB9c_zcL4LdSyrlM3-88" value="1" style="text;html=1;align=center;verticalAlign=middle;whiteSpace=wrap;rounded=0;fontSize=14;" parent="1" vertex="1">
          <mxGeometry x="-1720" y="652.5" width="70" height="40" as="geometry" />
        </mxCell>
        <mxCell id="zCYktKldvefxMlGL8kDC-1" value="" style="ellipse;whiteSpace=wrap;html=1;" vertex="1" parent="1">
          <mxGeometry x="-1155" y="1750" width="120" height="80" as="geometry" />
        </mxCell>
        <mxCell id="zCYktKldvefxMlGL8kDC-2" value="&lt;font style=&quot;font-size: 24px;&quot;&gt;Appartient&lt;/font&gt;" style="text;html=1;align=center;verticalAlign=middle;whiteSpace=wrap;rounded=0;" vertex="1" parent="1">
          <mxGeometry x="-1137.5" y="1772.5" width="85" height="35" as="geometry" />
        </mxCell>
        <mxCell id="zCYktKldvefxMlGL8kDC-3" style="edgeStyle=orthogonalEdgeStyle;rounded=0;orthogonalLoop=1;jettySize=auto;html=1;exitX=0.5;exitY=1;exitDx=0;exitDy=0;" edge="1" parent="1" source="zCYktKldvefxMlGL8kDC-2" target="zCYktKldvefxMlGL8kDC-2">
          <mxGeometry relative="1" as="geometry" />
        </mxCell>
        <mxCell id="zCYktKldvefxMlGL8kDC-4" value="" style="ellipse;whiteSpace=wrap;html=1;" vertex="1" parent="1">
          <mxGeometry x="-1155" y="1242.5" width="120" height="80" as="geometry" />
        </mxCell>
        <mxCell id="zCYktKldvefxMlGL8kDC-5" value="&lt;font style=&quot;font-size: 24px;&quot;&gt;Utilise&lt;/font&gt;" style="text;html=1;align=center;verticalAlign=middle;whiteSpace=wrap;rounded=0;" vertex="1" parent="1">
          <mxGeometry x="-1137.5" y="1265" width="85" height="35" as="geometry" />
        </mxCell>
        <mxCell id="zCYktKldvefxMlGL8kDC-6" value="" style="ellipse;whiteSpace=wrap;html=1;" vertex="1" parent="1">
          <mxGeometry x="-1645" y="1287.5" width="120" height="80" as="geometry" />
        </mxCell>
        <mxCell id="zCYktKldvefxMlGL8kDC-7" value="&lt;font style=&quot;font-size: 24px;&quot;&gt;RÃ©servÃ©e&lt;/font&gt;" style="text;html=1;align=center;verticalAlign=middle;whiteSpace=wrap;rounded=0;" vertex="1" parent="1">
          <mxGeometry x="-1627.5" y="1310" width="85" height="35" as="geometry" />
        </mxCell>
        <mxCell id="zCYktKldvefxMlGL8kDC-9" value="" style="ellipse;whiteSpace=wrap;html=1;" vertex="1" parent="1">
          <mxGeometry x="-710" y="1495" width="120" height="80" as="geometry" />
        </mxCell>
        <mxCell id="zCYktKldvefxMlGL8kDC-10" value="&lt;font style=&quot;font-size: 24px;&quot;&gt;Avoir&lt;/font&gt;" style="text;html=1;align=center;verticalAlign=middle;whiteSpace=wrap;rounded=0;" vertex="1" parent="1">
          <mxGeometry x="-692.5" y="1517.5" width="85" height="35" as="geometry" />
        </mxCell>
        <mxCell id="zCYktKldvefxMlGL8kDC-11" value="" style="ellipse;whiteSpace=wrap;html=1;" vertex="1" parent="1">
          <mxGeometry x="-1155" y="850" width="120" height="80" as="geometry" />
        </mxCell>
        <mxCell id="zCYktKldvefxMlGL8kDC-12" value="&lt;font style=&quot;font-size: 24px;&quot;&gt;Stocke&lt;/font&gt;" style="text;html=1;align=center;verticalAlign=middle;whiteSpace=wrap;rounded=0;" vertex="1" parent="1">
          <mxGeometry x="-1137.5" y="872.5" width="85" height="35" as="geometry" />
        </mxCell>
        <mxCell id="zCYktKldvefxMlGL8kDC-13" value="" style="ellipse;whiteSpace=wrap;html=1;" vertex="1" parent="1">
          <mxGeometry x="-2130" y="1472.5" width="120" height="80" as="geometry" />
        </mxCell>
        <mxCell id="zCYktKldvefxMlGL8kDC-14" value="&lt;font style=&quot;font-size: 24px;&quot;&gt;Est assignÃ©e&lt;/font&gt;" style="text;html=1;align=center;verticalAlign=middle;whiteSpace=wrap;rounded=0;" vertex="1" parent="1">
          <mxGeometry x="-2112.5" y="1495" width="85" height="35" as="geometry" />
        </mxCell>
        <mxCell id="zCYktKldvefxMlGL8kDC-15" value="" style="ellipse;whiteSpace=wrap;html=1;" vertex="1" parent="1">
          <mxGeometry x="-1900" y="770" width="120" height="80" as="geometry" />
        </mxCell>
        <mxCell id="zCYktKldvefxMlGL8kDC-16" value="&lt;font style=&quot;font-size: 24px;&quot;&gt;Est faite&lt;/font&gt;" style="text;html=1;align=center;verticalAlign=middle;whiteSpace=wrap;rounded=0;" vertex="1" parent="1">
          <mxGeometry x="-1882.5" y="792.5" width="85" height="35" as="geometry" />
        </mxCell>
        <mxCell id="zCYktKldvefxMlGL8kDC-17" value="" style="ellipse;whiteSpace=wrap;html=1;" vertex="1" parent="1">
          <mxGeometry x="-615" y="860" width="120" height="80" as="geometry" />
        </mxCell>
        <mxCell id="zCYktKldvefxMlGL8kDC-18" value="&lt;font style=&quot;font-size: 24px;&quot;&gt;Avoir&lt;/font&gt;" style="text;html=1;align=center;verticalAlign=middle;whiteSpace=wrap;rounded=0;" vertex="1" parent="1">
          <mxGeometry x="-597.5" y="882.5" width="85" height="35" as="geometry" />
        </mxCell>
      </root>
    </mxGraphModel>
  </diagram>
</mxfile>
